M48
; DRILL file {KiCad 9.0.4-9.0.4-0~ubuntu24.04.1} date 2025-10-30T13:54:37-0400
; FORMAT={-:-/ absolute / metric / decimal}
; #@! TF.CreationDate,2025-10-30T13:54:37-04:00
; #@! TF.GenerationSoftware,Kicad,Pcbnew,9.0.4-9.0.4-0~ubuntu24.04.1
; #@! TF.FileFunction,Plated,1,2,PTH
FMAT,2
METRIC
; #@! TA.AperFunction,Plated,PTH,ViaDrill
T1C0.300
; #@! TA.AperFunction,Plated,PTH,ComponentDrill
T2C0.350
; #@! TA.AperFunction,Plated,PTH,ComponentDrill
T3C0.600
; #@! TA.AperFunction,Plated,PTH,ComponentDrill
T4C1.000
; #@! TA.AperFunction,Plated,PTH,ComponentDrill
T5C2.150
%
G90
G05
T1
X155.5Y-102.5
X157.43Y-121.57
X181.75Y-109.0
X185.25Y-115.75
X186.5Y-107.25
X188.125Y-116.125
X190.25Y-107.25
T2
X163.75Y-112.096
X163.75Y-113.496
X164.45Y-111.396
X164.45Y-112.796
X164.45Y-114.196
X165.15Y-112.096
X165.15Y-113.496
X165.85Y-111.396
X165.85Y-112.796
X165.85Y-114.196
X166.55Y-112.096
X166.55Y-113.496
T3
X129.8Y-110.25
X131.8Y-110.25
X136.65Y-113.45
X136.65Y-115.45
X136.65Y-118.4
X136.65Y-120.4
X143.4Y-121.95
X143.4Y-123.95
T4
X152.9Y-110.69
X152.9Y-113.23
X152.9Y-115.77
X152.9Y-118.31
X152.9Y-120.85
X152.9Y-123.39
T5
X129.45Y-104.0
X137.25Y-104.0
X200.0Y-100.0
X200.0Y-107.8
X200.0Y-115.6
X200.0Y-123.4
M30
