%TF.GenerationSoftware,KiCad,Pcbnew,9.0.4-9.0.4-0~ubuntu24.04.1*%
%TF.CreationDate,2025-10-30T13:54:35-04:00*%
%TF.ProjectId,wpiwaNDWSID,77706977-614e-4445-9753-49442e6b6963,rev?*%
%TF.SameCoordinates,Original*%
%TF.FileFunction,Soldermask,Top*%
%TF.FilePolarity,Negative*%
%FSLAX46Y46*%
G04 Gerber Fmt 4.6, Leading zero omitted, Abs format (unit mm)*
G04 Created by KiCad (PCBNEW 9.0.4-9.0.4-0~ubuntu24.04.1) date 2025-10-30 13:54:35*
%MOMM*%
%LPD*%
G01*
G04 APERTURE LIST*
G04 Aperture macros list*
%AMRoundRect*
0 Rectangle with rounded corners*
0 $1 Rounding radius*
0 $2 $3 $4 $5 $6 $7 $8 $9 X,Y pos of 4 corners*
0 Add a 4 corners polygon primitive as box body*
4,1,4,$2,$3,$4,$5,$6,$7,$8,$9,$2,$3,0*
0 Add four circle primitives for the rounded corners*
1,1,$1+$1,$2,$3*
1,1,$1+$1,$4,$5*
1,1,$1+$1,$6,$7*
1,1,$1+$1,$8,$9*
0 Add four rect primitives between the rounded corners*
20,1,$1+$1,$2,$3,$4,$5,0*
20,1,$1+$1,$4,$5,$6,$7,0*
20,1,$1+$1,$6,$7,$8,$9,0*
20,1,$1+$1,$8,$9,$2,$3,0*%
G04 Aperture macros list end*
%ADD10RoundRect,0.155000X0.212500X0.155000X-0.212500X0.155000X-0.212500X-0.155000X0.212500X-0.155000X0*%
%ADD11C,1.200000*%
%ADD12RoundRect,0.250000X-0.350000X0.350000X-0.350000X-0.350000X0.350000X-0.350000X0.350000X0.350000X0*%
%ADD13RoundRect,0.155000X-0.212500X-0.155000X0.212500X-0.155000X0.212500X0.155000X-0.212500X0.155000X0*%
%ADD14RoundRect,0.250000X0.350000X-0.350000X0.350000X0.350000X-0.350000X0.350000X-0.350000X-0.350000X0*%
%ADD15RoundRect,0.237500X0.237500X-0.287500X0.237500X0.287500X-0.237500X0.287500X-0.237500X-0.287500X0*%
%ADD16RoundRect,0.162500X-0.162500X0.837500X-0.162500X-0.837500X0.162500X-0.837500X0.162500X0.837500X0*%
%ADD17RoundRect,0.250000X-0.350000X-0.350000X0.350000X-0.350000X0.350000X0.350000X-0.350000X0.350000X0*%
%ADD18RoundRect,0.250002X-1.699998X-1.699998X1.699998X-1.699998X1.699998X1.699998X-1.699998X1.699998X0*%
%ADD19C,3.900000*%
%ADD20RoundRect,0.160000X-0.160000X0.197500X-0.160000X-0.197500X0.160000X-0.197500X0.160000X0.197500X0*%
%ADD21RoundRect,0.155000X-0.155000X0.212500X-0.155000X-0.212500X0.155000X-0.212500X0.155000X0.212500X0*%
%ADD22RoundRect,0.160000X-0.197500X-0.160000X0.197500X-0.160000X0.197500X0.160000X-0.197500X0.160000X0*%
%ADD23RoundRect,0.150000X-0.150000X0.825000X-0.150000X-0.825000X0.150000X-0.825000X0.150000X0.825000X0*%
%ADD24RoundRect,0.250002X-1.699998X1.699998X-1.699998X-1.699998X1.699998X-1.699998X1.699998X1.699998X0*%
%ADD25R,1.700000X1.700000*%
%ADD26C,1.700000*%
%ADD27RoundRect,0.250000X0.350000X-0.850000X0.350000X0.850000X-0.350000X0.850000X-0.350000X-0.850000X0*%
%ADD28RoundRect,0.249997X2.650003X-2.950003X2.650003X2.950003X-2.650003X2.950003X-2.650003X-2.950003X0*%
%ADD29RoundRect,0.160000X0.160000X-0.197500X0.160000X0.197500X-0.160000X0.197500X-0.160000X-0.197500X0*%
%ADD30R,0.900000X1.500000*%
%ADD31R,1.500000X0.900000*%
%ADD32C,0.600000*%
%ADD33R,3.900000X3.900000*%
G04 APERTURE END LIST*
D10*
%TO.C,C7*%
X130165000Y-122550000D03*
X131300000Y-122550000D03*
%TD*%
D11*
%TO.C,C9*%
X136650000Y-120400000D03*
D12*
X136650000Y-118400000D03*
%TD*%
D13*
%TO.C,C4*%
X131550000Y-114400000D03*
X130415000Y-114400000D03*
%TD*%
D11*
%TO.C,C8*%
X136650000Y-113450000D03*
D14*
X136650000Y-115450000D03*
%TD*%
D15*
%TO.C,L1*%
X133400000Y-120150000D03*
X133400000Y-121900000D03*
%TD*%
D16*
%TO.C,U3*%
X131150000Y-120260000D03*
X130200000Y-120260000D03*
X129250000Y-120260000D03*
X129250000Y-116840000D03*
X130200000Y-116840000D03*
X131150000Y-116840000D03*
%TD*%
D11*
%TO.C,C6*%
X131800000Y-110250000D03*
D17*
X129800000Y-110250000D03*
%TD*%
D18*
%TO.C,J5*%
X129450000Y-104000000D03*
D19*
X137250000Y-104000000D03*
%TD*%
D20*
%TO.C,R5*%
X194500000Y-121152500D03*
X194500000Y-122347500D03*
%TD*%
D14*
%TO.C,C2*%
X143400000Y-123950000D03*
D11*
X143400000Y-121950000D03*
%TD*%
D21*
%TO.C,C3*%
X161850000Y-122732500D03*
X161850000Y-123867500D03*
%TD*%
D22*
%TO.C,R1*%
X158702500Y-122050000D03*
X159897500Y-122050000D03*
%TD*%
D10*
%TO.C,C1*%
X147450000Y-121100000D03*
X146315000Y-121100000D03*
%TD*%
D22*
%TO.C,R3*%
X194252500Y-107850000D03*
X195447500Y-107850000D03*
%TD*%
D23*
%TO.C,U2*%
X190370000Y-109150000D03*
X189100000Y-109150000D03*
X187830000Y-109150000D03*
X186560000Y-109150000D03*
X185290000Y-109150000D03*
X184020000Y-109150000D03*
X182750000Y-109150000D03*
X182750000Y-114100000D03*
X184020000Y-114100000D03*
X185290000Y-114100000D03*
X186560000Y-114100000D03*
X187830000Y-114100000D03*
X189100000Y-114100000D03*
X190370000Y-114100000D03*
%TD*%
D24*
%TO.C,J2*%
X200000000Y-100000000D03*
D19*
X200000000Y-107800000D03*
X200000000Y-115600000D03*
X200000000Y-123400000D03*
%TD*%
D22*
%TO.C,R4*%
X194202500Y-115700000D03*
X195397500Y-115700000D03*
%TD*%
D25*
%TO.C,J1*%
X152900000Y-123390000D03*
D26*
X152900000Y-120850000D03*
X152900000Y-118310000D03*
X152900000Y-115770000D03*
X152900000Y-113230000D03*
X152900000Y-110690000D03*
%TD*%
D27*
%TO.C,U4*%
X142795000Y-118225000D03*
X145075000Y-118225000D03*
D28*
X145075000Y-111925000D03*
D27*
X147355000Y-118225000D03*
%TD*%
D29*
%TO.C,R2*%
X194650000Y-102797500D03*
X194650000Y-101602500D03*
%TD*%
D30*
%TO.C,U1*%
X157430000Y-120045606D03*
X158700000Y-120045606D03*
X159970000Y-120045606D03*
X161240000Y-120045606D03*
X162510000Y-120045606D03*
X163780000Y-120045606D03*
X165050000Y-120045606D03*
X166320000Y-120045606D03*
X167590000Y-120045606D03*
X168860000Y-120045606D03*
X170130000Y-120045606D03*
X171400000Y-120045606D03*
X172670000Y-120045606D03*
X173940000Y-120045606D03*
D31*
X175190000Y-118280606D03*
X175190000Y-117010606D03*
X175190000Y-115740606D03*
X175190000Y-114470606D03*
X175190000Y-113200606D03*
X175190000Y-111930606D03*
X175190000Y-110660606D03*
X175190000Y-109390606D03*
X175190000Y-108120606D03*
X175190000Y-106850606D03*
X175190000Y-105580606D03*
X175190000Y-104310606D03*
D30*
X173940000Y-102545606D03*
X172670000Y-102545606D03*
X171400000Y-102545606D03*
X170130000Y-102545606D03*
X168860000Y-102545606D03*
X167590000Y-102545606D03*
X166320000Y-102545606D03*
X165050000Y-102545606D03*
X163780000Y-102545606D03*
X162510000Y-102545606D03*
X161240000Y-102545606D03*
X159970000Y-102545606D03*
X158700000Y-102545606D03*
X157430000Y-102545606D03*
D32*
X164450000Y-114195606D03*
X165850000Y-114195606D03*
X163750000Y-113495606D03*
X165150000Y-113495606D03*
X166550000Y-113495606D03*
X164450000Y-112795606D03*
D33*
X165150000Y-112795606D03*
D32*
X165850000Y-112795606D03*
X163750000Y-112095606D03*
X165150000Y-112095606D03*
X166550000Y-112095606D03*
X164450000Y-111395606D03*
X165850000Y-111395606D03*
%TD*%
M02*
