%TF.GenerationSoftware,KiCad,Pcbnew,9.0.4-9.0.4-0~ubuntu24.04.1*%
%TF.CreationDate,2025-10-30T13:54:35-04:00*%
%TF.ProjectId,wpiwaNDWSID,77706977-614e-4445-9753-49442e6b6963,rev?*%
%TF.SameCoordinates,Original*%
%TF.FileFunction,Legend,Top*%
%TF.FilePolarity,Positive*%
%FSLAX46Y46*%
G04 Gerber Fmt 4.6, Leading zero omitted, Abs format (unit mm)*
G04 Created by KiCad (PCBNEW 9.0.4-9.0.4-0~ubuntu24.04.1) date 2025-10-30 13:54:35*
%MOMM*%
%LPD*%
G01*
G04 APERTURE LIST*
%ADD10C,0.100000*%
%ADD11C,0.150000*%
%ADD12C,0.120000*%
G04 APERTURE END LIST*
D10*
X165303884Y-123262475D02*
X165303884Y-122262475D01*
X165303884Y-122262475D02*
X165637217Y-122976760D01*
X165637217Y-122976760D02*
X165970550Y-122262475D01*
X165970550Y-122262475D02*
X165970550Y-123262475D01*
X166589598Y-123262475D02*
X166494360Y-123214856D01*
X166494360Y-123214856D02*
X166446741Y-123167236D01*
X166446741Y-123167236D02*
X166399122Y-123071998D01*
X166399122Y-123071998D02*
X166399122Y-122786284D01*
X166399122Y-122786284D02*
X166446741Y-122691046D01*
X166446741Y-122691046D02*
X166494360Y-122643427D01*
X166494360Y-122643427D02*
X166589598Y-122595808D01*
X166589598Y-122595808D02*
X166732455Y-122595808D01*
X166732455Y-122595808D02*
X166827693Y-122643427D01*
X166827693Y-122643427D02*
X166875312Y-122691046D01*
X166875312Y-122691046D02*
X166922931Y-122786284D01*
X166922931Y-122786284D02*
X166922931Y-123071998D01*
X166922931Y-123071998D02*
X166875312Y-123167236D01*
X166875312Y-123167236D02*
X166827693Y-123214856D01*
X166827693Y-123214856D02*
X166732455Y-123262475D01*
X166732455Y-123262475D02*
X166589598Y-123262475D01*
X167780074Y-122595808D02*
X167780074Y-123262475D01*
X167351503Y-122595808D02*
X167351503Y-123119617D01*
X167351503Y-123119617D02*
X167399122Y-123214856D01*
X167399122Y-123214856D02*
X167494360Y-123262475D01*
X167494360Y-123262475D02*
X167637217Y-123262475D01*
X167637217Y-123262475D02*
X167732455Y-123214856D01*
X167732455Y-123214856D02*
X167780074Y-123167236D01*
X168256265Y-122595808D02*
X168256265Y-123262475D01*
X168256265Y-122691046D02*
X168303884Y-122643427D01*
X168303884Y-122643427D02*
X168399122Y-122595808D01*
X168399122Y-122595808D02*
X168541979Y-122595808D01*
X168541979Y-122595808D02*
X168637217Y-122643427D01*
X168637217Y-122643427D02*
X168684836Y-122738665D01*
X168684836Y-122738665D02*
X168684836Y-123262475D01*
X169018170Y-122595808D02*
X169399122Y-122595808D01*
X169161027Y-122262475D02*
X169161027Y-123119617D01*
X169161027Y-123119617D02*
X169208646Y-123214856D01*
X169208646Y-123214856D02*
X169303884Y-123262475D01*
X169303884Y-123262475D02*
X169399122Y-123262475D01*
X169732456Y-123262475D02*
X169732456Y-122595808D01*
X169732456Y-122262475D02*
X169684837Y-122310094D01*
X169684837Y-122310094D02*
X169732456Y-122357713D01*
X169732456Y-122357713D02*
X169780075Y-122310094D01*
X169780075Y-122310094D02*
X169732456Y-122262475D01*
X169732456Y-122262475D02*
X169732456Y-122357713D01*
X170208646Y-122595808D02*
X170208646Y-123262475D01*
X170208646Y-122691046D02*
X170256265Y-122643427D01*
X170256265Y-122643427D02*
X170351503Y-122595808D01*
X170351503Y-122595808D02*
X170494360Y-122595808D01*
X170494360Y-122595808D02*
X170589598Y-122643427D01*
X170589598Y-122643427D02*
X170637217Y-122738665D01*
X170637217Y-122738665D02*
X170637217Y-123262475D01*
X171541979Y-122595808D02*
X171541979Y-123405332D01*
X171541979Y-123405332D02*
X171494360Y-123500570D01*
X171494360Y-123500570D02*
X171446741Y-123548189D01*
X171446741Y-123548189D02*
X171351503Y-123595808D01*
X171351503Y-123595808D02*
X171208646Y-123595808D01*
X171208646Y-123595808D02*
X171113408Y-123548189D01*
X171541979Y-123214856D02*
X171446741Y-123262475D01*
X171446741Y-123262475D02*
X171256265Y-123262475D01*
X171256265Y-123262475D02*
X171161027Y-123214856D01*
X171161027Y-123214856D02*
X171113408Y-123167236D01*
X171113408Y-123167236D02*
X171065789Y-123071998D01*
X171065789Y-123071998D02*
X171065789Y-122786284D01*
X171065789Y-122786284D02*
X171113408Y-122691046D01*
X171113408Y-122691046D02*
X171161027Y-122643427D01*
X171161027Y-122643427D02*
X171256265Y-122595808D01*
X171256265Y-122595808D02*
X171446741Y-122595808D01*
X171446741Y-122595808D02*
X171541979Y-122643427D01*
X172780075Y-123262475D02*
X172780075Y-122262475D01*
X172780075Y-122262475D02*
X173161027Y-122262475D01*
X173161027Y-122262475D02*
X173256265Y-122310094D01*
X173256265Y-122310094D02*
X173303884Y-122357713D01*
X173303884Y-122357713D02*
X173351503Y-122452951D01*
X173351503Y-122452951D02*
X173351503Y-122595808D01*
X173351503Y-122595808D02*
X173303884Y-122691046D01*
X173303884Y-122691046D02*
X173256265Y-122738665D01*
X173256265Y-122738665D02*
X173161027Y-122786284D01*
X173161027Y-122786284D02*
X172780075Y-122786284D01*
X174208646Y-123262475D02*
X174208646Y-122738665D01*
X174208646Y-122738665D02*
X174161027Y-122643427D01*
X174161027Y-122643427D02*
X174065789Y-122595808D01*
X174065789Y-122595808D02*
X173875313Y-122595808D01*
X173875313Y-122595808D02*
X173780075Y-122643427D01*
X174208646Y-123214856D02*
X174113408Y-123262475D01*
X174113408Y-123262475D02*
X173875313Y-123262475D01*
X173875313Y-123262475D02*
X173780075Y-123214856D01*
X173780075Y-123214856D02*
X173732456Y-123119617D01*
X173732456Y-123119617D02*
X173732456Y-123024379D01*
X173732456Y-123024379D02*
X173780075Y-122929141D01*
X173780075Y-122929141D02*
X173875313Y-122881522D01*
X173875313Y-122881522D02*
X174113408Y-122881522D01*
X174113408Y-122881522D02*
X174208646Y-122833903D01*
X174541980Y-122595808D02*
X174922932Y-122595808D01*
X174684837Y-122262475D02*
X174684837Y-123119617D01*
X174684837Y-123119617D02*
X174732456Y-123214856D01*
X174732456Y-123214856D02*
X174827694Y-123262475D01*
X174827694Y-123262475D02*
X174922932Y-123262475D01*
X175113409Y-122595808D02*
X175494361Y-122595808D01*
X175256266Y-122262475D02*
X175256266Y-123119617D01*
X175256266Y-123119617D02*
X175303885Y-123214856D01*
X175303885Y-123214856D02*
X175399123Y-123262475D01*
X175399123Y-123262475D02*
X175494361Y-123262475D01*
X176208647Y-123214856D02*
X176113409Y-123262475D01*
X176113409Y-123262475D02*
X175922933Y-123262475D01*
X175922933Y-123262475D02*
X175827695Y-123214856D01*
X175827695Y-123214856D02*
X175780076Y-123119617D01*
X175780076Y-123119617D02*
X175780076Y-122738665D01*
X175780076Y-122738665D02*
X175827695Y-122643427D01*
X175827695Y-122643427D02*
X175922933Y-122595808D01*
X175922933Y-122595808D02*
X176113409Y-122595808D01*
X176113409Y-122595808D02*
X176208647Y-122643427D01*
X176208647Y-122643427D02*
X176256266Y-122738665D01*
X176256266Y-122738665D02*
X176256266Y-122833903D01*
X176256266Y-122833903D02*
X175780076Y-122929141D01*
X176684838Y-123262475D02*
X176684838Y-122595808D01*
X176684838Y-122786284D02*
X176732457Y-122691046D01*
X176732457Y-122691046D02*
X176780076Y-122643427D01*
X176780076Y-122643427D02*
X176875314Y-122595808D01*
X176875314Y-122595808D02*
X176970552Y-122595808D01*
X177303886Y-122595808D02*
X177303886Y-123262475D01*
X177303886Y-122691046D02*
X177351505Y-122643427D01*
X177351505Y-122643427D02*
X177446743Y-122595808D01*
X177446743Y-122595808D02*
X177589600Y-122595808D01*
X177589600Y-122595808D02*
X177684838Y-122643427D01*
X177684838Y-122643427D02*
X177732457Y-122738665D01*
X177732457Y-122738665D02*
X177732457Y-123262475D01*
X165256265Y-123967657D02*
X165303884Y-123920038D01*
X165303884Y-123920038D02*
X165399122Y-123872419D01*
X165399122Y-123872419D02*
X165637217Y-123872419D01*
X165637217Y-123872419D02*
X165732455Y-123920038D01*
X165732455Y-123920038D02*
X165780074Y-123967657D01*
X165780074Y-123967657D02*
X165827693Y-124062895D01*
X165827693Y-124062895D02*
X165827693Y-124158133D01*
X165827693Y-124158133D02*
X165780074Y-124300990D01*
X165780074Y-124300990D02*
X165208646Y-124872419D01*
X165208646Y-124872419D02*
X165827693Y-124872419D01*
X166446741Y-123872419D02*
X166541979Y-123872419D01*
X166541979Y-123872419D02*
X166637217Y-123920038D01*
X166637217Y-123920038D02*
X166684836Y-123967657D01*
X166684836Y-123967657D02*
X166732455Y-124062895D01*
X166732455Y-124062895D02*
X166780074Y-124253371D01*
X166780074Y-124253371D02*
X166780074Y-124491466D01*
X166780074Y-124491466D02*
X166732455Y-124681942D01*
X166732455Y-124681942D02*
X166684836Y-124777180D01*
X166684836Y-124777180D02*
X166637217Y-124824800D01*
X166637217Y-124824800D02*
X166541979Y-124872419D01*
X166541979Y-124872419D02*
X166446741Y-124872419D01*
X166446741Y-124872419D02*
X166351503Y-124824800D01*
X166351503Y-124824800D02*
X166303884Y-124777180D01*
X166303884Y-124777180D02*
X166256265Y-124681942D01*
X166256265Y-124681942D02*
X166208646Y-124491466D01*
X166208646Y-124491466D02*
X166208646Y-124253371D01*
X166208646Y-124253371D02*
X166256265Y-124062895D01*
X166256265Y-124062895D02*
X166303884Y-123967657D01*
X166303884Y-123967657D02*
X166351503Y-123920038D01*
X166351503Y-123920038D02*
X166446741Y-123872419D01*
X167113408Y-124872419D02*
X167637217Y-124205752D01*
X167113408Y-124205752D02*
X167637217Y-124872419D01*
X168446741Y-124205752D02*
X168446741Y-124872419D01*
X168208646Y-123824800D02*
X167970551Y-124539085D01*
X167970551Y-124539085D02*
X168589598Y-124539085D01*
X169161027Y-123872419D02*
X169256265Y-123872419D01*
X169256265Y-123872419D02*
X169351503Y-123920038D01*
X169351503Y-123920038D02*
X169399122Y-123967657D01*
X169399122Y-123967657D02*
X169446741Y-124062895D01*
X169446741Y-124062895D02*
X169494360Y-124253371D01*
X169494360Y-124253371D02*
X169494360Y-124491466D01*
X169494360Y-124491466D02*
X169446741Y-124681942D01*
X169446741Y-124681942D02*
X169399122Y-124777180D01*
X169399122Y-124777180D02*
X169351503Y-124824800D01*
X169351503Y-124824800D02*
X169256265Y-124872419D01*
X169256265Y-124872419D02*
X169161027Y-124872419D01*
X169161027Y-124872419D02*
X169065789Y-124824800D01*
X169065789Y-124824800D02*
X169018170Y-124777180D01*
X169018170Y-124777180D02*
X168970551Y-124681942D01*
X168970551Y-124681942D02*
X168922932Y-124491466D01*
X168922932Y-124491466D02*
X168922932Y-124253371D01*
X168922932Y-124253371D02*
X168970551Y-124062895D01*
X168970551Y-124062895D02*
X169018170Y-123967657D01*
X169018170Y-123967657D02*
X169065789Y-123920038D01*
X169065789Y-123920038D02*
X169161027Y-123872419D01*
X169922932Y-124872419D02*
X169922932Y-124205752D01*
X169922932Y-124300990D02*
X169970551Y-124253371D01*
X169970551Y-124253371D02*
X170065789Y-124205752D01*
X170065789Y-124205752D02*
X170208646Y-124205752D01*
X170208646Y-124205752D02*
X170303884Y-124253371D01*
X170303884Y-124253371D02*
X170351503Y-124348609D01*
X170351503Y-124348609D02*
X170351503Y-124872419D01*
X170351503Y-124348609D02*
X170399122Y-124253371D01*
X170399122Y-124253371D02*
X170494360Y-124205752D01*
X170494360Y-124205752D02*
X170637217Y-124205752D01*
X170637217Y-124205752D02*
X170732456Y-124253371D01*
X170732456Y-124253371D02*
X170780075Y-124348609D01*
X170780075Y-124348609D02*
X170780075Y-124872419D01*
X171256265Y-124872419D02*
X171256265Y-124205752D01*
X171256265Y-124300990D02*
X171303884Y-124253371D01*
X171303884Y-124253371D02*
X171399122Y-124205752D01*
X171399122Y-124205752D02*
X171541979Y-124205752D01*
X171541979Y-124205752D02*
X171637217Y-124253371D01*
X171637217Y-124253371D02*
X171684836Y-124348609D01*
X171684836Y-124348609D02*
X171684836Y-124872419D01*
X171684836Y-124348609D02*
X171732455Y-124253371D01*
X171732455Y-124253371D02*
X171827693Y-124205752D01*
X171827693Y-124205752D02*
X171970550Y-124205752D01*
X171970550Y-124205752D02*
X172065789Y-124253371D01*
X172065789Y-124253371D02*
X172113408Y-124348609D01*
X172113408Y-124348609D02*
X172113408Y-124872419D01*
X172637217Y-124824800D02*
X172637217Y-124872419D01*
X172637217Y-124872419D02*
X172589598Y-124967657D01*
X172589598Y-124967657D02*
X172541979Y-125015276D01*
X173827693Y-124872419D02*
X173827693Y-123872419D01*
X173827693Y-123872419D02*
X174161026Y-124586704D01*
X174161026Y-124586704D02*
X174494359Y-123872419D01*
X174494359Y-123872419D02*
X174494359Y-124872419D01*
X174875312Y-123872419D02*
X175494359Y-123872419D01*
X175494359Y-123872419D02*
X175161026Y-124253371D01*
X175161026Y-124253371D02*
X175303883Y-124253371D01*
X175303883Y-124253371D02*
X175399121Y-124300990D01*
X175399121Y-124300990D02*
X175446740Y-124348609D01*
X175446740Y-124348609D02*
X175494359Y-124443847D01*
X175494359Y-124443847D02*
X175494359Y-124681942D01*
X175494359Y-124681942D02*
X175446740Y-124777180D01*
X175446740Y-124777180D02*
X175399121Y-124824800D01*
X175399121Y-124824800D02*
X175303883Y-124872419D01*
X175303883Y-124872419D02*
X175018169Y-124872419D01*
X175018169Y-124872419D02*
X174922931Y-124824800D01*
X174922931Y-124824800D02*
X174875312Y-124777180D01*
X176827693Y-124872419D02*
X176732455Y-124824800D01*
X176732455Y-124824800D02*
X176684836Y-124777180D01*
X176684836Y-124777180D02*
X176637217Y-124681942D01*
X176637217Y-124681942D02*
X176637217Y-124396228D01*
X176637217Y-124396228D02*
X176684836Y-124300990D01*
X176684836Y-124300990D02*
X176732455Y-124253371D01*
X176732455Y-124253371D02*
X176827693Y-124205752D01*
X176827693Y-124205752D02*
X176970550Y-124205752D01*
X176970550Y-124205752D02*
X177065788Y-124253371D01*
X177065788Y-124253371D02*
X177113407Y-124300990D01*
X177113407Y-124300990D02*
X177161026Y-124396228D01*
X177161026Y-124396228D02*
X177161026Y-124681942D01*
X177161026Y-124681942D02*
X177113407Y-124777180D01*
X177113407Y-124777180D02*
X177065788Y-124824800D01*
X177065788Y-124824800D02*
X176970550Y-124872419D01*
X176970550Y-124872419D02*
X176827693Y-124872419D01*
X177589598Y-124872419D02*
X177589598Y-124205752D01*
X177589598Y-124396228D02*
X177637217Y-124300990D01*
X177637217Y-124300990D02*
X177684836Y-124253371D01*
X177684836Y-124253371D02*
X177780074Y-124205752D01*
X177780074Y-124205752D02*
X177875312Y-124205752D01*
X178922932Y-124205752D02*
X179637217Y-124205752D01*
X179208646Y-123777180D02*
X178922932Y-125062895D01*
X179541979Y-124634323D02*
X178827694Y-124634323D01*
X179256265Y-125062895D02*
X179541979Y-123777180D01*
X180399122Y-123872419D02*
X180208646Y-123872419D01*
X180208646Y-123872419D02*
X180113408Y-123920038D01*
X180113408Y-123920038D02*
X180065789Y-123967657D01*
X180065789Y-123967657D02*
X179970551Y-124110514D01*
X179970551Y-124110514D02*
X179922932Y-124300990D01*
X179922932Y-124300990D02*
X179922932Y-124681942D01*
X179922932Y-124681942D02*
X179970551Y-124777180D01*
X179970551Y-124777180D02*
X180018170Y-124824800D01*
X180018170Y-124824800D02*
X180113408Y-124872419D01*
X180113408Y-124872419D02*
X180303884Y-124872419D01*
X180303884Y-124872419D02*
X180399122Y-124824800D01*
X180399122Y-124824800D02*
X180446741Y-124777180D01*
X180446741Y-124777180D02*
X180494360Y-124681942D01*
X180494360Y-124681942D02*
X180494360Y-124443847D01*
X180494360Y-124443847D02*
X180446741Y-124348609D01*
X180446741Y-124348609D02*
X180399122Y-124300990D01*
X180399122Y-124300990D02*
X180303884Y-124253371D01*
X180303884Y-124253371D02*
X180113408Y-124253371D01*
X180113408Y-124253371D02*
X180018170Y-124300990D01*
X180018170Y-124300990D02*
X179970551Y-124348609D01*
X179970551Y-124348609D02*
X179922932Y-124443847D01*
X139803884Y-99012475D02*
X139803884Y-98012475D01*
X140375312Y-99012475D02*
X139946741Y-98441046D01*
X140375312Y-98012475D02*
X139803884Y-98583903D01*
X140661027Y-98012475D02*
X140994360Y-99012475D01*
X140994360Y-99012475D02*
X141327693Y-98012475D01*
X141851503Y-98012475D02*
X141946741Y-98012475D01*
X141946741Y-98012475D02*
X142041979Y-98060094D01*
X142041979Y-98060094D02*
X142089598Y-98107713D01*
X142089598Y-98107713D02*
X142137217Y-98202951D01*
X142137217Y-98202951D02*
X142184836Y-98393427D01*
X142184836Y-98393427D02*
X142184836Y-98631522D01*
X142184836Y-98631522D02*
X142137217Y-98821998D01*
X142137217Y-98821998D02*
X142089598Y-98917236D01*
X142089598Y-98917236D02*
X142041979Y-98964856D01*
X142041979Y-98964856D02*
X141946741Y-99012475D01*
X141946741Y-99012475D02*
X141851503Y-99012475D01*
X141851503Y-99012475D02*
X141756265Y-98964856D01*
X141756265Y-98964856D02*
X141708646Y-98917236D01*
X141708646Y-98917236D02*
X141661027Y-98821998D01*
X141661027Y-98821998D02*
X141613408Y-98631522D01*
X141613408Y-98631522D02*
X141613408Y-98393427D01*
X141613408Y-98393427D02*
X141661027Y-98202951D01*
X141661027Y-98202951D02*
X141708646Y-98107713D01*
X141708646Y-98107713D02*
X141756265Y-98060094D01*
X141756265Y-98060094D02*
X141851503Y-98012475D01*
X143184836Y-99012475D02*
X142851503Y-98536284D01*
X142613408Y-99012475D02*
X142613408Y-98012475D01*
X142613408Y-98012475D02*
X142994360Y-98012475D01*
X142994360Y-98012475D02*
X143089598Y-98060094D01*
X143089598Y-98060094D02*
X143137217Y-98107713D01*
X143137217Y-98107713D02*
X143184836Y-98202951D01*
X143184836Y-98202951D02*
X143184836Y-98345808D01*
X143184836Y-98345808D02*
X143137217Y-98441046D01*
X143137217Y-98441046D02*
X143089598Y-98488665D01*
X143089598Y-98488665D02*
X142994360Y-98536284D01*
X142994360Y-98536284D02*
X142613408Y-98536284D01*
X144375313Y-98631522D02*
X145137218Y-98631522D01*
X146375313Y-99012475D02*
X146375313Y-98012475D01*
X146375313Y-98012475D02*
X146946741Y-99012475D01*
X146946741Y-99012475D02*
X146946741Y-98012475D01*
X147422932Y-99012475D02*
X147422932Y-98345808D01*
X147422932Y-98012475D02*
X147375313Y-98060094D01*
X147375313Y-98060094D02*
X147422932Y-98107713D01*
X147422932Y-98107713D02*
X147470551Y-98060094D01*
X147470551Y-98060094D02*
X147422932Y-98012475D01*
X147422932Y-98012475D02*
X147422932Y-98107713D01*
X148327693Y-98964856D02*
X148232455Y-99012475D01*
X148232455Y-99012475D02*
X148041979Y-99012475D01*
X148041979Y-99012475D02*
X147946741Y-98964856D01*
X147946741Y-98964856D02*
X147899122Y-98917236D01*
X147899122Y-98917236D02*
X147851503Y-98821998D01*
X147851503Y-98821998D02*
X147851503Y-98536284D01*
X147851503Y-98536284D02*
X147899122Y-98441046D01*
X147899122Y-98441046D02*
X147946741Y-98393427D01*
X147946741Y-98393427D02*
X148041979Y-98345808D01*
X148041979Y-98345808D02*
X148232455Y-98345808D01*
X148232455Y-98345808D02*
X148327693Y-98393427D01*
X149518170Y-99012475D02*
X149518170Y-98012475D01*
X149518170Y-98012475D02*
X149756265Y-98012475D01*
X149756265Y-98012475D02*
X149899122Y-98060094D01*
X149899122Y-98060094D02*
X149994360Y-98155332D01*
X149994360Y-98155332D02*
X150041979Y-98250570D01*
X150041979Y-98250570D02*
X150089598Y-98441046D01*
X150089598Y-98441046D02*
X150089598Y-98583903D01*
X150089598Y-98583903D02*
X150041979Y-98774379D01*
X150041979Y-98774379D02*
X149994360Y-98869617D01*
X149994360Y-98869617D02*
X149899122Y-98964856D01*
X149899122Y-98964856D02*
X149756265Y-99012475D01*
X149756265Y-99012475D02*
X149518170Y-99012475D01*
X150899122Y-98964856D02*
X150803884Y-99012475D01*
X150803884Y-99012475D02*
X150613408Y-99012475D01*
X150613408Y-99012475D02*
X150518170Y-98964856D01*
X150518170Y-98964856D02*
X150470551Y-98869617D01*
X150470551Y-98869617D02*
X150470551Y-98488665D01*
X150470551Y-98488665D02*
X150518170Y-98393427D01*
X150518170Y-98393427D02*
X150613408Y-98345808D01*
X150613408Y-98345808D02*
X150803884Y-98345808D01*
X150803884Y-98345808D02*
X150899122Y-98393427D01*
X150899122Y-98393427D02*
X150946741Y-98488665D01*
X150946741Y-98488665D02*
X150946741Y-98583903D01*
X150946741Y-98583903D02*
X150470551Y-98679141D01*
X151708646Y-98488665D02*
X151851503Y-98536284D01*
X151851503Y-98536284D02*
X151899122Y-98583903D01*
X151899122Y-98583903D02*
X151946741Y-98679141D01*
X151946741Y-98679141D02*
X151946741Y-98821998D01*
X151946741Y-98821998D02*
X151899122Y-98917236D01*
X151899122Y-98917236D02*
X151851503Y-98964856D01*
X151851503Y-98964856D02*
X151756265Y-99012475D01*
X151756265Y-99012475D02*
X151375313Y-99012475D01*
X151375313Y-99012475D02*
X151375313Y-98012475D01*
X151375313Y-98012475D02*
X151708646Y-98012475D01*
X151708646Y-98012475D02*
X151803884Y-98060094D01*
X151803884Y-98060094D02*
X151851503Y-98107713D01*
X151851503Y-98107713D02*
X151899122Y-98202951D01*
X151899122Y-98202951D02*
X151899122Y-98298189D01*
X151899122Y-98298189D02*
X151851503Y-98393427D01*
X151851503Y-98393427D02*
X151803884Y-98441046D01*
X151803884Y-98441046D02*
X151708646Y-98488665D01*
X151708646Y-98488665D02*
X151375313Y-98488665D01*
X152375313Y-99012475D02*
X152375313Y-98345808D01*
X152375313Y-98536284D02*
X152422932Y-98441046D01*
X152422932Y-98441046D02*
X152470551Y-98393427D01*
X152470551Y-98393427D02*
X152565789Y-98345808D01*
X152565789Y-98345808D02*
X152661027Y-98345808D01*
X153422932Y-98345808D02*
X153422932Y-99012475D01*
X152994361Y-98345808D02*
X152994361Y-98869617D01*
X152994361Y-98869617D02*
X153041980Y-98964856D01*
X153041980Y-98964856D02*
X153137218Y-99012475D01*
X153137218Y-99012475D02*
X153280075Y-99012475D01*
X153280075Y-99012475D02*
X153375313Y-98964856D01*
X153375313Y-98964856D02*
X153422932Y-98917236D01*
X153899123Y-99012475D02*
X153899123Y-98345808D01*
X153899123Y-98012475D02*
X153851504Y-98060094D01*
X153851504Y-98060094D02*
X153899123Y-98107713D01*
X153899123Y-98107713D02*
X153946742Y-98060094D01*
X153946742Y-98060094D02*
X153899123Y-98012475D01*
X153899123Y-98012475D02*
X153899123Y-98107713D01*
X154375313Y-98345808D02*
X154375313Y-99012475D01*
X154375313Y-98441046D02*
X154422932Y-98393427D01*
X154422932Y-98393427D02*
X154518170Y-98345808D01*
X154518170Y-98345808D02*
X154661027Y-98345808D01*
X154661027Y-98345808D02*
X154756265Y-98393427D01*
X154756265Y-98393427D02*
X154803884Y-98488665D01*
X154803884Y-98488665D02*
X154803884Y-99012475D01*
X159470550Y-98012475D02*
X159708645Y-99012475D01*
X159708645Y-99012475D02*
X159899121Y-98298189D01*
X159899121Y-98298189D02*
X160089597Y-99012475D01*
X160089597Y-99012475D02*
X160327693Y-98012475D01*
X160708645Y-99012475D02*
X160708645Y-98012475D01*
X160708645Y-98012475D02*
X161089597Y-98012475D01*
X161089597Y-98012475D02*
X161184835Y-98060094D01*
X161184835Y-98060094D02*
X161232454Y-98107713D01*
X161232454Y-98107713D02*
X161280073Y-98202951D01*
X161280073Y-98202951D02*
X161280073Y-98345808D01*
X161280073Y-98345808D02*
X161232454Y-98441046D01*
X161232454Y-98441046D02*
X161184835Y-98488665D01*
X161184835Y-98488665D02*
X161089597Y-98536284D01*
X161089597Y-98536284D02*
X160708645Y-98536284D01*
X161708645Y-99012475D02*
X161708645Y-98012475D01*
X162089597Y-98012475D02*
X162327692Y-99012475D01*
X162327692Y-99012475D02*
X162518168Y-98298189D01*
X162518168Y-98298189D02*
X162708644Y-99012475D01*
X162708644Y-99012475D02*
X162946740Y-98012475D01*
X163280073Y-98726760D02*
X163756263Y-98726760D01*
X163184835Y-99012475D02*
X163518168Y-98012475D01*
X163518168Y-98012475D02*
X163851501Y-99012475D01*
X164946740Y-99012475D02*
X164946740Y-98012475D01*
X164946740Y-98012475D02*
X165518168Y-99012475D01*
X165518168Y-99012475D02*
X165518168Y-98012475D01*
X165994359Y-99012475D02*
X165994359Y-98012475D01*
X165994359Y-98012475D02*
X166232454Y-98012475D01*
X166232454Y-98012475D02*
X166375311Y-98060094D01*
X166375311Y-98060094D02*
X166470549Y-98155332D01*
X166470549Y-98155332D02*
X166518168Y-98250570D01*
X166518168Y-98250570D02*
X166565787Y-98441046D01*
X166565787Y-98441046D02*
X166565787Y-98583903D01*
X166565787Y-98583903D02*
X166518168Y-98774379D01*
X166518168Y-98774379D02*
X166470549Y-98869617D01*
X166470549Y-98869617D02*
X166375311Y-98964856D01*
X166375311Y-98964856D02*
X166232454Y-99012475D01*
X166232454Y-99012475D02*
X165994359Y-99012475D01*
X166899121Y-98012475D02*
X167137216Y-99012475D01*
X167137216Y-99012475D02*
X167327692Y-98298189D01*
X167327692Y-98298189D02*
X167518168Y-99012475D01*
X167518168Y-99012475D02*
X167756264Y-98012475D01*
X168089597Y-98964856D02*
X168232454Y-99012475D01*
X168232454Y-99012475D02*
X168470549Y-99012475D01*
X168470549Y-99012475D02*
X168565787Y-98964856D01*
X168565787Y-98964856D02*
X168613406Y-98917236D01*
X168613406Y-98917236D02*
X168661025Y-98821998D01*
X168661025Y-98821998D02*
X168661025Y-98726760D01*
X168661025Y-98726760D02*
X168613406Y-98631522D01*
X168613406Y-98631522D02*
X168565787Y-98583903D01*
X168565787Y-98583903D02*
X168470549Y-98536284D01*
X168470549Y-98536284D02*
X168280073Y-98488665D01*
X168280073Y-98488665D02*
X168184835Y-98441046D01*
X168184835Y-98441046D02*
X168137216Y-98393427D01*
X168137216Y-98393427D02*
X168089597Y-98298189D01*
X168089597Y-98298189D02*
X168089597Y-98202951D01*
X168089597Y-98202951D02*
X168137216Y-98107713D01*
X168137216Y-98107713D02*
X168184835Y-98060094D01*
X168184835Y-98060094D02*
X168280073Y-98012475D01*
X168280073Y-98012475D02*
X168518168Y-98012475D01*
X168518168Y-98012475D02*
X168661025Y-98060094D01*
X169089597Y-99012475D02*
X169089597Y-98012475D01*
X169565787Y-99012475D02*
X169565787Y-98012475D01*
X169565787Y-98012475D02*
X169803882Y-98012475D01*
X169803882Y-98012475D02*
X169946739Y-98060094D01*
X169946739Y-98060094D02*
X170041977Y-98155332D01*
X170041977Y-98155332D02*
X170089596Y-98250570D01*
X170089596Y-98250570D02*
X170137215Y-98441046D01*
X170137215Y-98441046D02*
X170137215Y-98583903D01*
X170137215Y-98583903D02*
X170089596Y-98774379D01*
X170089596Y-98774379D02*
X170041977Y-98869617D01*
X170041977Y-98869617D02*
X169946739Y-98964856D01*
X169946739Y-98964856D02*
X169803882Y-99012475D01*
X169803882Y-99012475D02*
X169565787Y-99012475D01*
X171899120Y-98917236D02*
X171851501Y-98964856D01*
X171851501Y-98964856D02*
X171708644Y-99012475D01*
X171708644Y-99012475D02*
X171613406Y-99012475D01*
X171613406Y-99012475D02*
X171470549Y-98964856D01*
X171470549Y-98964856D02*
X171375311Y-98869617D01*
X171375311Y-98869617D02*
X171327692Y-98774379D01*
X171327692Y-98774379D02*
X171280073Y-98583903D01*
X171280073Y-98583903D02*
X171280073Y-98441046D01*
X171280073Y-98441046D02*
X171327692Y-98250570D01*
X171327692Y-98250570D02*
X171375311Y-98155332D01*
X171375311Y-98155332D02*
X171470549Y-98060094D01*
X171470549Y-98060094D02*
X171613406Y-98012475D01*
X171613406Y-98012475D02*
X171708644Y-98012475D01*
X171708644Y-98012475D02*
X171851501Y-98060094D01*
X171851501Y-98060094D02*
X171899120Y-98107713D01*
X172470549Y-99012475D02*
X172375311Y-98964856D01*
X172375311Y-98964856D02*
X172327692Y-98917236D01*
X172327692Y-98917236D02*
X172280073Y-98821998D01*
X172280073Y-98821998D02*
X172280073Y-98536284D01*
X172280073Y-98536284D02*
X172327692Y-98441046D01*
X172327692Y-98441046D02*
X172375311Y-98393427D01*
X172375311Y-98393427D02*
X172470549Y-98345808D01*
X172470549Y-98345808D02*
X172613406Y-98345808D01*
X172613406Y-98345808D02*
X172708644Y-98393427D01*
X172708644Y-98393427D02*
X172756263Y-98441046D01*
X172756263Y-98441046D02*
X172803882Y-98536284D01*
X172803882Y-98536284D02*
X172803882Y-98821998D01*
X172803882Y-98821998D02*
X172756263Y-98917236D01*
X172756263Y-98917236D02*
X172708644Y-98964856D01*
X172708644Y-98964856D02*
X172613406Y-99012475D01*
X172613406Y-99012475D02*
X172470549Y-99012475D01*
X173232454Y-98345808D02*
X173232454Y-99012475D01*
X173232454Y-98441046D02*
X173280073Y-98393427D01*
X173280073Y-98393427D02*
X173375311Y-98345808D01*
X173375311Y-98345808D02*
X173518168Y-98345808D01*
X173518168Y-98345808D02*
X173613406Y-98393427D01*
X173613406Y-98393427D02*
X173661025Y-98488665D01*
X173661025Y-98488665D02*
X173661025Y-99012475D01*
X173994359Y-98345808D02*
X174375311Y-98345808D01*
X174137216Y-98012475D02*
X174137216Y-98869617D01*
X174137216Y-98869617D02*
X174184835Y-98964856D01*
X174184835Y-98964856D02*
X174280073Y-99012475D01*
X174280073Y-99012475D02*
X174375311Y-99012475D01*
X174708645Y-99012475D02*
X174708645Y-98345808D01*
X174708645Y-98536284D02*
X174756264Y-98441046D01*
X174756264Y-98441046D02*
X174803883Y-98393427D01*
X174803883Y-98393427D02*
X174899121Y-98345808D01*
X174899121Y-98345808D02*
X174994359Y-98345808D01*
X175470550Y-99012475D02*
X175375312Y-98964856D01*
X175375312Y-98964856D02*
X175327693Y-98917236D01*
X175327693Y-98917236D02*
X175280074Y-98821998D01*
X175280074Y-98821998D02*
X175280074Y-98536284D01*
X175280074Y-98536284D02*
X175327693Y-98441046D01*
X175327693Y-98441046D02*
X175375312Y-98393427D01*
X175375312Y-98393427D02*
X175470550Y-98345808D01*
X175470550Y-98345808D02*
X175613407Y-98345808D01*
X175613407Y-98345808D02*
X175708645Y-98393427D01*
X175708645Y-98393427D02*
X175756264Y-98441046D01*
X175756264Y-98441046D02*
X175803883Y-98536284D01*
X175803883Y-98536284D02*
X175803883Y-98821998D01*
X175803883Y-98821998D02*
X175756264Y-98917236D01*
X175756264Y-98917236D02*
X175708645Y-98964856D01*
X175708645Y-98964856D02*
X175613407Y-99012475D01*
X175613407Y-99012475D02*
X175470550Y-99012475D01*
X176375312Y-99012475D02*
X176280074Y-98964856D01*
X176280074Y-98964856D02*
X176232455Y-98869617D01*
X176232455Y-98869617D02*
X176232455Y-98012475D01*
X176899122Y-99012475D02*
X176803884Y-98964856D01*
X176803884Y-98964856D02*
X176756265Y-98869617D01*
X176756265Y-98869617D02*
X176756265Y-98012475D01*
X177661027Y-98964856D02*
X177565789Y-99012475D01*
X177565789Y-99012475D02*
X177375313Y-99012475D01*
X177375313Y-99012475D02*
X177280075Y-98964856D01*
X177280075Y-98964856D02*
X177232456Y-98869617D01*
X177232456Y-98869617D02*
X177232456Y-98488665D01*
X177232456Y-98488665D02*
X177280075Y-98393427D01*
X177280075Y-98393427D02*
X177375313Y-98345808D01*
X177375313Y-98345808D02*
X177565789Y-98345808D01*
X177565789Y-98345808D02*
X177661027Y-98393427D01*
X177661027Y-98393427D02*
X177708646Y-98488665D01*
X177708646Y-98488665D02*
X177708646Y-98583903D01*
X177708646Y-98583903D02*
X177232456Y-98679141D01*
X178137218Y-99012475D02*
X178137218Y-98345808D01*
X178137218Y-98536284D02*
X178184837Y-98441046D01*
X178184837Y-98441046D02*
X178232456Y-98393427D01*
X178232456Y-98393427D02*
X178327694Y-98345808D01*
X178327694Y-98345808D02*
X178422932Y-98345808D01*
X139994360Y-99622419D02*
X140184836Y-99622419D01*
X140184836Y-99622419D02*
X140280074Y-99670038D01*
X140280074Y-99670038D02*
X140375312Y-99765276D01*
X140375312Y-99765276D02*
X140422931Y-99955752D01*
X140422931Y-99955752D02*
X140422931Y-100289085D01*
X140422931Y-100289085D02*
X140375312Y-100479561D01*
X140375312Y-100479561D02*
X140280074Y-100574800D01*
X140280074Y-100574800D02*
X140184836Y-100622419D01*
X140184836Y-100622419D02*
X139994360Y-100622419D01*
X139994360Y-100622419D02*
X139899122Y-100574800D01*
X139899122Y-100574800D02*
X139803884Y-100479561D01*
X139803884Y-100479561D02*
X139756265Y-100289085D01*
X139756265Y-100289085D02*
X139756265Y-99955752D01*
X139756265Y-99955752D02*
X139803884Y-99765276D01*
X139803884Y-99765276D02*
X139899122Y-99670038D01*
X139899122Y-99670038D02*
X139994360Y-99622419D01*
X141280074Y-100574800D02*
X141184836Y-100622419D01*
X141184836Y-100622419D02*
X140994360Y-100622419D01*
X140994360Y-100622419D02*
X140899122Y-100574800D01*
X140899122Y-100574800D02*
X140851503Y-100527180D01*
X140851503Y-100527180D02*
X140803884Y-100431942D01*
X140803884Y-100431942D02*
X140803884Y-100146228D01*
X140803884Y-100146228D02*
X140851503Y-100050990D01*
X140851503Y-100050990D02*
X140899122Y-100003371D01*
X140899122Y-100003371D02*
X140994360Y-99955752D01*
X140994360Y-99955752D02*
X141184836Y-99955752D01*
X141184836Y-99955752D02*
X141280074Y-100003371D01*
X141565789Y-99955752D02*
X141946741Y-99955752D01*
X141708646Y-99622419D02*
X141708646Y-100479561D01*
X141708646Y-100479561D02*
X141756265Y-100574800D01*
X141756265Y-100574800D02*
X141851503Y-100622419D01*
X141851503Y-100622419D02*
X141946741Y-100622419D01*
X142422932Y-100622419D02*
X142327694Y-100574800D01*
X142327694Y-100574800D02*
X142280075Y-100527180D01*
X142280075Y-100527180D02*
X142232456Y-100431942D01*
X142232456Y-100431942D02*
X142232456Y-100146228D01*
X142232456Y-100146228D02*
X142280075Y-100050990D01*
X142280075Y-100050990D02*
X142327694Y-100003371D01*
X142327694Y-100003371D02*
X142422932Y-99955752D01*
X142422932Y-99955752D02*
X142565789Y-99955752D01*
X142565789Y-99955752D02*
X142661027Y-100003371D01*
X142661027Y-100003371D02*
X142708646Y-100050990D01*
X142708646Y-100050990D02*
X142756265Y-100146228D01*
X142756265Y-100146228D02*
X142756265Y-100431942D01*
X142756265Y-100431942D02*
X142708646Y-100527180D01*
X142708646Y-100527180D02*
X142661027Y-100574800D01*
X142661027Y-100574800D02*
X142565789Y-100622419D01*
X142565789Y-100622419D02*
X142422932Y-100622419D01*
X143184837Y-100622419D02*
X143184837Y-99622419D01*
X143184837Y-100003371D02*
X143280075Y-99955752D01*
X143280075Y-99955752D02*
X143470551Y-99955752D01*
X143470551Y-99955752D02*
X143565789Y-100003371D01*
X143565789Y-100003371D02*
X143613408Y-100050990D01*
X143613408Y-100050990D02*
X143661027Y-100146228D01*
X143661027Y-100146228D02*
X143661027Y-100431942D01*
X143661027Y-100431942D02*
X143613408Y-100527180D01*
X143613408Y-100527180D02*
X143565789Y-100574800D01*
X143565789Y-100574800D02*
X143470551Y-100622419D01*
X143470551Y-100622419D02*
X143280075Y-100622419D01*
X143280075Y-100622419D02*
X143184837Y-100574800D01*
X144470551Y-100574800D02*
X144375313Y-100622419D01*
X144375313Y-100622419D02*
X144184837Y-100622419D01*
X144184837Y-100622419D02*
X144089599Y-100574800D01*
X144089599Y-100574800D02*
X144041980Y-100479561D01*
X144041980Y-100479561D02*
X144041980Y-100098609D01*
X144041980Y-100098609D02*
X144089599Y-100003371D01*
X144089599Y-100003371D02*
X144184837Y-99955752D01*
X144184837Y-99955752D02*
X144375313Y-99955752D01*
X144375313Y-99955752D02*
X144470551Y-100003371D01*
X144470551Y-100003371D02*
X144518170Y-100098609D01*
X144518170Y-100098609D02*
X144518170Y-100193847D01*
X144518170Y-100193847D02*
X144041980Y-100289085D01*
X144946742Y-100622419D02*
X144946742Y-99955752D01*
X144946742Y-100146228D02*
X144994361Y-100050990D01*
X144994361Y-100050990D02*
X145041980Y-100003371D01*
X145041980Y-100003371D02*
X145137218Y-99955752D01*
X145137218Y-99955752D02*
X145232456Y-99955752D01*
X146280076Y-99717657D02*
X146327695Y-99670038D01*
X146327695Y-99670038D02*
X146422933Y-99622419D01*
X146422933Y-99622419D02*
X146661028Y-99622419D01*
X146661028Y-99622419D02*
X146756266Y-99670038D01*
X146756266Y-99670038D02*
X146803885Y-99717657D01*
X146803885Y-99717657D02*
X146851504Y-99812895D01*
X146851504Y-99812895D02*
X146851504Y-99908133D01*
X146851504Y-99908133D02*
X146803885Y-100050990D01*
X146803885Y-100050990D02*
X146232457Y-100622419D01*
X146232457Y-100622419D02*
X146851504Y-100622419D01*
X147470552Y-99622419D02*
X147565790Y-99622419D01*
X147565790Y-99622419D02*
X147661028Y-99670038D01*
X147661028Y-99670038D02*
X147708647Y-99717657D01*
X147708647Y-99717657D02*
X147756266Y-99812895D01*
X147756266Y-99812895D02*
X147803885Y-100003371D01*
X147803885Y-100003371D02*
X147803885Y-100241466D01*
X147803885Y-100241466D02*
X147756266Y-100431942D01*
X147756266Y-100431942D02*
X147708647Y-100527180D01*
X147708647Y-100527180D02*
X147661028Y-100574800D01*
X147661028Y-100574800D02*
X147565790Y-100622419D01*
X147565790Y-100622419D02*
X147470552Y-100622419D01*
X147470552Y-100622419D02*
X147375314Y-100574800D01*
X147375314Y-100574800D02*
X147327695Y-100527180D01*
X147327695Y-100527180D02*
X147280076Y-100431942D01*
X147280076Y-100431942D02*
X147232457Y-100241466D01*
X147232457Y-100241466D02*
X147232457Y-100003371D01*
X147232457Y-100003371D02*
X147280076Y-99812895D01*
X147280076Y-99812895D02*
X147327695Y-99717657D01*
X147327695Y-99717657D02*
X147375314Y-99670038D01*
X147375314Y-99670038D02*
X147470552Y-99622419D01*
X148184838Y-99717657D02*
X148232457Y-99670038D01*
X148232457Y-99670038D02*
X148327695Y-99622419D01*
X148327695Y-99622419D02*
X148565790Y-99622419D01*
X148565790Y-99622419D02*
X148661028Y-99670038D01*
X148661028Y-99670038D02*
X148708647Y-99717657D01*
X148708647Y-99717657D02*
X148756266Y-99812895D01*
X148756266Y-99812895D02*
X148756266Y-99908133D01*
X148756266Y-99908133D02*
X148708647Y-100050990D01*
X148708647Y-100050990D02*
X148137219Y-100622419D01*
X148137219Y-100622419D02*
X148756266Y-100622419D01*
X149661028Y-99622419D02*
X149184838Y-99622419D01*
X149184838Y-99622419D02*
X149137219Y-100098609D01*
X149137219Y-100098609D02*
X149184838Y-100050990D01*
X149184838Y-100050990D02*
X149280076Y-100003371D01*
X149280076Y-100003371D02*
X149518171Y-100003371D01*
X149518171Y-100003371D02*
X149613409Y-100050990D01*
X149613409Y-100050990D02*
X149661028Y-100098609D01*
X149661028Y-100098609D02*
X149708647Y-100193847D01*
X149708647Y-100193847D02*
X149708647Y-100431942D01*
X149708647Y-100431942D02*
X149661028Y-100527180D01*
X149661028Y-100527180D02*
X149613409Y-100574800D01*
X149613409Y-100574800D02*
X149518171Y-100622419D01*
X149518171Y-100622419D02*
X149280076Y-100622419D01*
X149280076Y-100622419D02*
X149184838Y-100574800D01*
X149184838Y-100574800D02*
X149137219Y-100527180D01*
X134670038Y-100672306D02*
X134622419Y-100767544D01*
X134622419Y-100767544D02*
X134622419Y-100910401D01*
X134622419Y-100910401D02*
X134670038Y-101053258D01*
X134670038Y-101053258D02*
X134765276Y-101148496D01*
X134765276Y-101148496D02*
X134860514Y-101196115D01*
X134860514Y-101196115D02*
X135050990Y-101243734D01*
X135050990Y-101243734D02*
X135193847Y-101243734D01*
X135193847Y-101243734D02*
X135384323Y-101196115D01*
X135384323Y-101196115D02*
X135479561Y-101148496D01*
X135479561Y-101148496D02*
X135574800Y-101053258D01*
X135574800Y-101053258D02*
X135622419Y-100910401D01*
X135622419Y-100910401D02*
X135622419Y-100815163D01*
X135622419Y-100815163D02*
X135574800Y-100672306D01*
X135574800Y-100672306D02*
X135527180Y-100624687D01*
X135527180Y-100624687D02*
X135193847Y-100624687D01*
X135193847Y-100624687D02*
X135193847Y-100815163D01*
X135622419Y-100196115D02*
X134622419Y-100196115D01*
X134622419Y-100196115D02*
X135622419Y-99624687D01*
X135622419Y-99624687D02*
X134622419Y-99624687D01*
X135622419Y-99148496D02*
X134622419Y-99148496D01*
X134622419Y-99148496D02*
X134622419Y-98910401D01*
X134622419Y-98910401D02*
X134670038Y-98767544D01*
X134670038Y-98767544D02*
X134765276Y-98672306D01*
X134765276Y-98672306D02*
X134860514Y-98624687D01*
X134860514Y-98624687D02*
X135050990Y-98577068D01*
X135050990Y-98577068D02*
X135193847Y-98577068D01*
X135193847Y-98577068D02*
X135384323Y-98624687D01*
X135384323Y-98624687D02*
X135479561Y-98672306D01*
X135479561Y-98672306D02*
X135574800Y-98767544D01*
X135574800Y-98767544D02*
X135622419Y-98910401D01*
X135622419Y-98910401D02*
X135622419Y-99148496D01*
X127491466Y-101446115D02*
X127491466Y-100684211D01*
X127872419Y-101065163D02*
X127110514Y-101065163D01*
X127872419Y-99684211D02*
X127872419Y-100255639D01*
X127872419Y-99969925D02*
X126872419Y-99969925D01*
X126872419Y-99969925D02*
X127015276Y-100065163D01*
X127015276Y-100065163D02*
X127110514Y-100160401D01*
X127110514Y-100160401D02*
X127158133Y-100255639D01*
X126967657Y-99303258D02*
X126920038Y-99255639D01*
X126920038Y-99255639D02*
X126872419Y-99160401D01*
X126872419Y-99160401D02*
X126872419Y-98922306D01*
X126872419Y-98922306D02*
X126920038Y-98827068D01*
X126920038Y-98827068D02*
X126967657Y-98779449D01*
X126967657Y-98779449D02*
X127062895Y-98731830D01*
X127062895Y-98731830D02*
X127158133Y-98731830D01*
X127158133Y-98731830D02*
X127300990Y-98779449D01*
X127300990Y-98779449D02*
X127872419Y-99350877D01*
X127872419Y-99350877D02*
X127872419Y-98731830D01*
X126872419Y-98446115D02*
X127872419Y-98112782D01*
X127872419Y-98112782D02*
X126872419Y-97779449D01*
X193494360Y-97762475D02*
X193684836Y-97762475D01*
X193684836Y-97762475D02*
X193780074Y-97810094D01*
X193780074Y-97810094D02*
X193875312Y-97905332D01*
X193875312Y-97905332D02*
X193922931Y-98095808D01*
X193922931Y-98095808D02*
X193922931Y-98429141D01*
X193922931Y-98429141D02*
X193875312Y-98619617D01*
X193875312Y-98619617D02*
X193780074Y-98714856D01*
X193780074Y-98714856D02*
X193684836Y-98762475D01*
X193684836Y-98762475D02*
X193494360Y-98762475D01*
X193494360Y-98762475D02*
X193399122Y-98714856D01*
X193399122Y-98714856D02*
X193303884Y-98619617D01*
X193303884Y-98619617D02*
X193256265Y-98429141D01*
X193256265Y-98429141D02*
X193256265Y-98095808D01*
X193256265Y-98095808D02*
X193303884Y-97905332D01*
X193303884Y-97905332D02*
X193399122Y-97810094D01*
X193399122Y-97810094D02*
X193494360Y-97762475D01*
X194351503Y-97762475D02*
X194351503Y-98571998D01*
X194351503Y-98571998D02*
X194399122Y-98667236D01*
X194399122Y-98667236D02*
X194446741Y-98714856D01*
X194446741Y-98714856D02*
X194541979Y-98762475D01*
X194541979Y-98762475D02*
X194732455Y-98762475D01*
X194732455Y-98762475D02*
X194827693Y-98714856D01*
X194827693Y-98714856D02*
X194875312Y-98667236D01*
X194875312Y-98667236D02*
X194922931Y-98571998D01*
X194922931Y-98571998D02*
X194922931Y-97762475D01*
X195256265Y-97762475D02*
X195827693Y-97762475D01*
X195541979Y-98762475D02*
X195541979Y-97762475D01*
X196684836Y-98762475D02*
X196113408Y-98762475D01*
X196399122Y-98762475D02*
X196399122Y-97762475D01*
X196399122Y-97762475D02*
X196303884Y-97905332D01*
X196303884Y-97905332D02*
X196208646Y-98000570D01*
X196208646Y-98000570D02*
X196113408Y-98048189D01*
X193303884Y-100372419D02*
X193303884Y-99372419D01*
X193303884Y-99372419D02*
X193684836Y-99372419D01*
X193684836Y-99372419D02*
X193780074Y-99420038D01*
X193780074Y-99420038D02*
X193827693Y-99467657D01*
X193827693Y-99467657D02*
X193875312Y-99562895D01*
X193875312Y-99562895D02*
X193875312Y-99705752D01*
X193875312Y-99705752D02*
X193827693Y-99800990D01*
X193827693Y-99800990D02*
X193780074Y-99848609D01*
X193780074Y-99848609D02*
X193684836Y-99896228D01*
X193684836Y-99896228D02*
X193303884Y-99896228D01*
X194303884Y-100372419D02*
X194303884Y-99705752D01*
X194303884Y-99372419D02*
X194256265Y-99420038D01*
X194256265Y-99420038D02*
X194303884Y-99467657D01*
X194303884Y-99467657D02*
X194351503Y-99420038D01*
X194351503Y-99420038D02*
X194303884Y-99372419D01*
X194303884Y-99372419D02*
X194303884Y-99467657D01*
X194780074Y-99705752D02*
X194780074Y-100372419D01*
X194780074Y-99800990D02*
X194827693Y-99753371D01*
X194827693Y-99753371D02*
X194922931Y-99705752D01*
X194922931Y-99705752D02*
X195065788Y-99705752D01*
X195065788Y-99705752D02*
X195161026Y-99753371D01*
X195161026Y-99753371D02*
X195208645Y-99848609D01*
X195208645Y-99848609D02*
X195208645Y-100372419D01*
X196208645Y-100372419D02*
X195637217Y-100372419D01*
X195922931Y-100372419D02*
X195922931Y-99372419D01*
X195922931Y-99372419D02*
X195827693Y-99515276D01*
X195827693Y-99515276D02*
X195732455Y-99610514D01*
X195732455Y-99610514D02*
X195637217Y-99658133D01*
X196541979Y-99372419D02*
X197161026Y-99372419D01*
X197161026Y-99372419D02*
X196827693Y-99753371D01*
X196827693Y-99753371D02*
X196970550Y-99753371D01*
X196970550Y-99753371D02*
X197065788Y-99800990D01*
X197065788Y-99800990D02*
X197113407Y-99848609D01*
X197113407Y-99848609D02*
X197161026Y-99943847D01*
X197161026Y-99943847D02*
X197161026Y-100181942D01*
X197161026Y-100181942D02*
X197113407Y-100277180D01*
X197113407Y-100277180D02*
X197065788Y-100324800D01*
X197065788Y-100324800D02*
X196970550Y-100372419D01*
X196970550Y-100372419D02*
X196684836Y-100372419D01*
X196684836Y-100372419D02*
X196589598Y-100324800D01*
X196589598Y-100324800D02*
X196541979Y-100277180D01*
X193994360Y-109012475D02*
X194184836Y-109012475D01*
X194184836Y-109012475D02*
X194280074Y-109060094D01*
X194280074Y-109060094D02*
X194375312Y-109155332D01*
X194375312Y-109155332D02*
X194422931Y-109345808D01*
X194422931Y-109345808D02*
X194422931Y-109679141D01*
X194422931Y-109679141D02*
X194375312Y-109869617D01*
X194375312Y-109869617D02*
X194280074Y-109964856D01*
X194280074Y-109964856D02*
X194184836Y-110012475D01*
X194184836Y-110012475D02*
X193994360Y-110012475D01*
X193994360Y-110012475D02*
X193899122Y-109964856D01*
X193899122Y-109964856D02*
X193803884Y-109869617D01*
X193803884Y-109869617D02*
X193756265Y-109679141D01*
X193756265Y-109679141D02*
X193756265Y-109345808D01*
X193756265Y-109345808D02*
X193803884Y-109155332D01*
X193803884Y-109155332D02*
X193899122Y-109060094D01*
X193899122Y-109060094D02*
X193994360Y-109012475D01*
X194851503Y-109012475D02*
X194851503Y-109821998D01*
X194851503Y-109821998D02*
X194899122Y-109917236D01*
X194899122Y-109917236D02*
X194946741Y-109964856D01*
X194946741Y-109964856D02*
X195041979Y-110012475D01*
X195041979Y-110012475D02*
X195232455Y-110012475D01*
X195232455Y-110012475D02*
X195327693Y-109964856D01*
X195327693Y-109964856D02*
X195375312Y-109917236D01*
X195375312Y-109917236D02*
X195422931Y-109821998D01*
X195422931Y-109821998D02*
X195422931Y-109012475D01*
X195756265Y-109012475D02*
X196327693Y-109012475D01*
X196041979Y-110012475D02*
X196041979Y-109012475D01*
X196613408Y-109107713D02*
X196661027Y-109060094D01*
X196661027Y-109060094D02*
X196756265Y-109012475D01*
X196756265Y-109012475D02*
X196994360Y-109012475D01*
X196994360Y-109012475D02*
X197089598Y-109060094D01*
X197089598Y-109060094D02*
X197137217Y-109107713D01*
X197137217Y-109107713D02*
X197184836Y-109202951D01*
X197184836Y-109202951D02*
X197184836Y-109298189D01*
X197184836Y-109298189D02*
X197137217Y-109441046D01*
X197137217Y-109441046D02*
X196565789Y-110012475D01*
X196565789Y-110012475D02*
X197184836Y-110012475D01*
X193803884Y-111622419D02*
X193803884Y-110622419D01*
X193803884Y-110622419D02*
X194184836Y-110622419D01*
X194184836Y-110622419D02*
X194280074Y-110670038D01*
X194280074Y-110670038D02*
X194327693Y-110717657D01*
X194327693Y-110717657D02*
X194375312Y-110812895D01*
X194375312Y-110812895D02*
X194375312Y-110955752D01*
X194375312Y-110955752D02*
X194327693Y-111050990D01*
X194327693Y-111050990D02*
X194280074Y-111098609D01*
X194280074Y-111098609D02*
X194184836Y-111146228D01*
X194184836Y-111146228D02*
X193803884Y-111146228D01*
X194803884Y-111622419D02*
X194803884Y-110955752D01*
X194803884Y-110622419D02*
X194756265Y-110670038D01*
X194756265Y-110670038D02*
X194803884Y-110717657D01*
X194803884Y-110717657D02*
X194851503Y-110670038D01*
X194851503Y-110670038D02*
X194803884Y-110622419D01*
X194803884Y-110622419D02*
X194803884Y-110717657D01*
X195280074Y-110955752D02*
X195280074Y-111622419D01*
X195280074Y-111050990D02*
X195327693Y-111003371D01*
X195327693Y-111003371D02*
X195422931Y-110955752D01*
X195422931Y-110955752D02*
X195565788Y-110955752D01*
X195565788Y-110955752D02*
X195661026Y-111003371D01*
X195661026Y-111003371D02*
X195708645Y-111098609D01*
X195708645Y-111098609D02*
X195708645Y-111622419D01*
X196708645Y-111622419D02*
X196137217Y-111622419D01*
X196422931Y-111622419D02*
X196422931Y-110622419D01*
X196422931Y-110622419D02*
X196327693Y-110765276D01*
X196327693Y-110765276D02*
X196232455Y-110860514D01*
X196232455Y-110860514D02*
X196137217Y-110908133D01*
X197089598Y-110717657D02*
X197137217Y-110670038D01*
X197137217Y-110670038D02*
X197232455Y-110622419D01*
X197232455Y-110622419D02*
X197470550Y-110622419D01*
X197470550Y-110622419D02*
X197565788Y-110670038D01*
X197565788Y-110670038D02*
X197613407Y-110717657D01*
X197613407Y-110717657D02*
X197661026Y-110812895D01*
X197661026Y-110812895D02*
X197661026Y-110908133D01*
X197661026Y-110908133D02*
X197613407Y-111050990D01*
X197613407Y-111050990D02*
X197041979Y-111622419D01*
X197041979Y-111622419D02*
X197661026Y-111622419D01*
X193994360Y-116762475D02*
X194184836Y-116762475D01*
X194184836Y-116762475D02*
X194280074Y-116810094D01*
X194280074Y-116810094D02*
X194375312Y-116905332D01*
X194375312Y-116905332D02*
X194422931Y-117095808D01*
X194422931Y-117095808D02*
X194422931Y-117429141D01*
X194422931Y-117429141D02*
X194375312Y-117619617D01*
X194375312Y-117619617D02*
X194280074Y-117714856D01*
X194280074Y-117714856D02*
X194184836Y-117762475D01*
X194184836Y-117762475D02*
X193994360Y-117762475D01*
X193994360Y-117762475D02*
X193899122Y-117714856D01*
X193899122Y-117714856D02*
X193803884Y-117619617D01*
X193803884Y-117619617D02*
X193756265Y-117429141D01*
X193756265Y-117429141D02*
X193756265Y-117095808D01*
X193756265Y-117095808D02*
X193803884Y-116905332D01*
X193803884Y-116905332D02*
X193899122Y-116810094D01*
X193899122Y-116810094D02*
X193994360Y-116762475D01*
X194851503Y-116762475D02*
X194851503Y-117571998D01*
X194851503Y-117571998D02*
X194899122Y-117667236D01*
X194899122Y-117667236D02*
X194946741Y-117714856D01*
X194946741Y-117714856D02*
X195041979Y-117762475D01*
X195041979Y-117762475D02*
X195232455Y-117762475D01*
X195232455Y-117762475D02*
X195327693Y-117714856D01*
X195327693Y-117714856D02*
X195375312Y-117667236D01*
X195375312Y-117667236D02*
X195422931Y-117571998D01*
X195422931Y-117571998D02*
X195422931Y-116762475D01*
X195756265Y-116762475D02*
X196327693Y-116762475D01*
X196041979Y-117762475D02*
X196041979Y-116762475D01*
X196565789Y-116762475D02*
X197184836Y-116762475D01*
X197184836Y-116762475D02*
X196851503Y-117143427D01*
X196851503Y-117143427D02*
X196994360Y-117143427D01*
X196994360Y-117143427D02*
X197089598Y-117191046D01*
X197089598Y-117191046D02*
X197137217Y-117238665D01*
X197137217Y-117238665D02*
X197184836Y-117333903D01*
X197184836Y-117333903D02*
X197184836Y-117571998D01*
X197184836Y-117571998D02*
X197137217Y-117667236D01*
X197137217Y-117667236D02*
X197089598Y-117714856D01*
X197089598Y-117714856D02*
X196994360Y-117762475D01*
X196994360Y-117762475D02*
X196708646Y-117762475D01*
X196708646Y-117762475D02*
X196613408Y-117714856D01*
X196613408Y-117714856D02*
X196565789Y-117667236D01*
X193803884Y-119372419D02*
X193803884Y-118372419D01*
X193803884Y-118372419D02*
X194184836Y-118372419D01*
X194184836Y-118372419D02*
X194280074Y-118420038D01*
X194280074Y-118420038D02*
X194327693Y-118467657D01*
X194327693Y-118467657D02*
X194375312Y-118562895D01*
X194375312Y-118562895D02*
X194375312Y-118705752D01*
X194375312Y-118705752D02*
X194327693Y-118800990D01*
X194327693Y-118800990D02*
X194280074Y-118848609D01*
X194280074Y-118848609D02*
X194184836Y-118896228D01*
X194184836Y-118896228D02*
X193803884Y-118896228D01*
X194803884Y-119372419D02*
X194803884Y-118705752D01*
X194803884Y-118372419D02*
X194756265Y-118420038D01*
X194756265Y-118420038D02*
X194803884Y-118467657D01*
X194803884Y-118467657D02*
X194851503Y-118420038D01*
X194851503Y-118420038D02*
X194803884Y-118372419D01*
X194803884Y-118372419D02*
X194803884Y-118467657D01*
X195280074Y-118705752D02*
X195280074Y-119372419D01*
X195280074Y-118800990D02*
X195327693Y-118753371D01*
X195327693Y-118753371D02*
X195422931Y-118705752D01*
X195422931Y-118705752D02*
X195565788Y-118705752D01*
X195565788Y-118705752D02*
X195661026Y-118753371D01*
X195661026Y-118753371D02*
X195708645Y-118848609D01*
X195708645Y-118848609D02*
X195708645Y-119372419D01*
X196708645Y-119372419D02*
X196137217Y-119372419D01*
X196422931Y-119372419D02*
X196422931Y-118372419D01*
X196422931Y-118372419D02*
X196327693Y-118515276D01*
X196327693Y-118515276D02*
X196232455Y-118610514D01*
X196232455Y-118610514D02*
X196137217Y-118658133D01*
X197661026Y-119372419D02*
X197089598Y-119372419D01*
X197375312Y-119372419D02*
X197375312Y-118372419D01*
X197375312Y-118372419D02*
X197280074Y-118515276D01*
X197280074Y-118515276D02*
X197184836Y-118610514D01*
X197184836Y-118610514D02*
X197089598Y-118658133D01*
X193994360Y-123762475D02*
X194184836Y-123762475D01*
X194184836Y-123762475D02*
X194280074Y-123810094D01*
X194280074Y-123810094D02*
X194375312Y-123905332D01*
X194375312Y-123905332D02*
X194422931Y-124095808D01*
X194422931Y-124095808D02*
X194422931Y-124429141D01*
X194422931Y-124429141D02*
X194375312Y-124619617D01*
X194375312Y-124619617D02*
X194280074Y-124714856D01*
X194280074Y-124714856D02*
X194184836Y-124762475D01*
X194184836Y-124762475D02*
X193994360Y-124762475D01*
X193994360Y-124762475D02*
X193899122Y-124714856D01*
X193899122Y-124714856D02*
X193803884Y-124619617D01*
X193803884Y-124619617D02*
X193756265Y-124429141D01*
X193756265Y-124429141D02*
X193756265Y-124095808D01*
X193756265Y-124095808D02*
X193803884Y-123905332D01*
X193803884Y-123905332D02*
X193899122Y-123810094D01*
X193899122Y-123810094D02*
X193994360Y-123762475D01*
X194851503Y-123762475D02*
X194851503Y-124571998D01*
X194851503Y-124571998D02*
X194899122Y-124667236D01*
X194899122Y-124667236D02*
X194946741Y-124714856D01*
X194946741Y-124714856D02*
X195041979Y-124762475D01*
X195041979Y-124762475D02*
X195232455Y-124762475D01*
X195232455Y-124762475D02*
X195327693Y-124714856D01*
X195327693Y-124714856D02*
X195375312Y-124667236D01*
X195375312Y-124667236D02*
X195422931Y-124571998D01*
X195422931Y-124571998D02*
X195422931Y-123762475D01*
X195756265Y-123762475D02*
X196327693Y-123762475D01*
X196041979Y-124762475D02*
X196041979Y-123762475D01*
X197089598Y-124095808D02*
X197089598Y-124762475D01*
X196851503Y-123714856D02*
X196613408Y-124429141D01*
X196613408Y-124429141D02*
X197232455Y-124429141D01*
X193803884Y-126372419D02*
X193803884Y-125372419D01*
X193803884Y-125372419D02*
X194184836Y-125372419D01*
X194184836Y-125372419D02*
X194280074Y-125420038D01*
X194280074Y-125420038D02*
X194327693Y-125467657D01*
X194327693Y-125467657D02*
X194375312Y-125562895D01*
X194375312Y-125562895D02*
X194375312Y-125705752D01*
X194375312Y-125705752D02*
X194327693Y-125800990D01*
X194327693Y-125800990D02*
X194280074Y-125848609D01*
X194280074Y-125848609D02*
X194184836Y-125896228D01*
X194184836Y-125896228D02*
X193803884Y-125896228D01*
X194803884Y-126372419D02*
X194803884Y-125705752D01*
X194803884Y-125372419D02*
X194756265Y-125420038D01*
X194756265Y-125420038D02*
X194803884Y-125467657D01*
X194803884Y-125467657D02*
X194851503Y-125420038D01*
X194851503Y-125420038D02*
X194803884Y-125372419D01*
X194803884Y-125372419D02*
X194803884Y-125467657D01*
X195280074Y-125705752D02*
X195280074Y-126372419D01*
X195280074Y-125800990D02*
X195327693Y-125753371D01*
X195327693Y-125753371D02*
X195422931Y-125705752D01*
X195422931Y-125705752D02*
X195565788Y-125705752D01*
X195565788Y-125705752D02*
X195661026Y-125753371D01*
X195661026Y-125753371D02*
X195708645Y-125848609D01*
X195708645Y-125848609D02*
X195708645Y-126372419D01*
X196708645Y-126372419D02*
X196137217Y-126372419D01*
X196422931Y-126372419D02*
X196422931Y-125372419D01*
X196422931Y-125372419D02*
X196327693Y-125515276D01*
X196327693Y-125515276D02*
X196232455Y-125610514D01*
X196232455Y-125610514D02*
X196137217Y-125658133D01*
X197327693Y-125372419D02*
X197422931Y-125372419D01*
X197422931Y-125372419D02*
X197518169Y-125420038D01*
X197518169Y-125420038D02*
X197565788Y-125467657D01*
X197565788Y-125467657D02*
X197613407Y-125562895D01*
X197613407Y-125562895D02*
X197661026Y-125753371D01*
X197661026Y-125753371D02*
X197661026Y-125991466D01*
X197661026Y-125991466D02*
X197613407Y-126181942D01*
X197613407Y-126181942D02*
X197565788Y-126277180D01*
X197565788Y-126277180D02*
X197518169Y-126324800D01*
X197518169Y-126324800D02*
X197422931Y-126372419D01*
X197422931Y-126372419D02*
X197327693Y-126372419D01*
X197327693Y-126372419D02*
X197232455Y-126324800D01*
X197232455Y-126324800D02*
X197184836Y-126277180D01*
X197184836Y-126277180D02*
X197137217Y-126181942D01*
X197137217Y-126181942D02*
X197089598Y-125991466D01*
X197089598Y-125991466D02*
X197089598Y-125753371D01*
X197089598Y-125753371D02*
X197137217Y-125562895D01*
X197137217Y-125562895D02*
X197184836Y-125467657D01*
X197184836Y-125467657D02*
X197232455Y-125420038D01*
X197232455Y-125420038D02*
X197327693Y-125372419D01*
D11*
X130565833Y-124069580D02*
X130518214Y-124117200D01*
X130518214Y-124117200D02*
X130375357Y-124164819D01*
X130375357Y-124164819D02*
X130280119Y-124164819D01*
X130280119Y-124164819D02*
X130137262Y-124117200D01*
X130137262Y-124117200D02*
X130042024Y-124021961D01*
X130042024Y-124021961D02*
X129994405Y-123926723D01*
X129994405Y-123926723D02*
X129946786Y-123736247D01*
X129946786Y-123736247D02*
X129946786Y-123593390D01*
X129946786Y-123593390D02*
X129994405Y-123402914D01*
X129994405Y-123402914D02*
X130042024Y-123307676D01*
X130042024Y-123307676D02*
X130137262Y-123212438D01*
X130137262Y-123212438D02*
X130280119Y-123164819D01*
X130280119Y-123164819D02*
X130375357Y-123164819D01*
X130375357Y-123164819D02*
X130518214Y-123212438D01*
X130518214Y-123212438D02*
X130565833Y-123260057D01*
X130899167Y-123164819D02*
X131565833Y-123164819D01*
X131565833Y-123164819D02*
X131137262Y-124164819D01*
X136853333Y-122859580D02*
X136805714Y-122907200D01*
X136805714Y-122907200D02*
X136662857Y-122954819D01*
X136662857Y-122954819D02*
X136567619Y-122954819D01*
X136567619Y-122954819D02*
X136424762Y-122907200D01*
X136424762Y-122907200D02*
X136329524Y-122811961D01*
X136329524Y-122811961D02*
X136281905Y-122716723D01*
X136281905Y-122716723D02*
X136234286Y-122526247D01*
X136234286Y-122526247D02*
X136234286Y-122383390D01*
X136234286Y-122383390D02*
X136281905Y-122192914D01*
X136281905Y-122192914D02*
X136329524Y-122097676D01*
X136329524Y-122097676D02*
X136424762Y-122002438D01*
X136424762Y-122002438D02*
X136567619Y-121954819D01*
X136567619Y-121954819D02*
X136662857Y-121954819D01*
X136662857Y-121954819D02*
X136805714Y-122002438D01*
X136805714Y-122002438D02*
X136853333Y-122050057D01*
X137329524Y-122954819D02*
X137520000Y-122954819D01*
X137520000Y-122954819D02*
X137615238Y-122907200D01*
X137615238Y-122907200D02*
X137662857Y-122859580D01*
X137662857Y-122859580D02*
X137758095Y-122716723D01*
X137758095Y-122716723D02*
X137805714Y-122526247D01*
X137805714Y-122526247D02*
X137805714Y-122145295D01*
X137805714Y-122145295D02*
X137758095Y-122050057D01*
X137758095Y-122050057D02*
X137710476Y-122002438D01*
X137710476Y-122002438D02*
X137615238Y-121954819D01*
X137615238Y-121954819D02*
X137424762Y-121954819D01*
X137424762Y-121954819D02*
X137329524Y-122002438D01*
X137329524Y-122002438D02*
X137281905Y-122050057D01*
X137281905Y-122050057D02*
X137234286Y-122145295D01*
X137234286Y-122145295D02*
X137234286Y-122383390D01*
X137234286Y-122383390D02*
X137281905Y-122478628D01*
X137281905Y-122478628D02*
X137329524Y-122526247D01*
X137329524Y-122526247D02*
X137424762Y-122573866D01*
X137424762Y-122573866D02*
X137615238Y-122573866D01*
X137615238Y-122573866D02*
X137710476Y-122526247D01*
X137710476Y-122526247D02*
X137758095Y-122478628D01*
X137758095Y-122478628D02*
X137805714Y-122383390D01*
X130815833Y-113599580D02*
X130768214Y-113647200D01*
X130768214Y-113647200D02*
X130625357Y-113694819D01*
X130625357Y-113694819D02*
X130530119Y-113694819D01*
X130530119Y-113694819D02*
X130387262Y-113647200D01*
X130387262Y-113647200D02*
X130292024Y-113551961D01*
X130292024Y-113551961D02*
X130244405Y-113456723D01*
X130244405Y-113456723D02*
X130196786Y-113266247D01*
X130196786Y-113266247D02*
X130196786Y-113123390D01*
X130196786Y-113123390D02*
X130244405Y-112932914D01*
X130244405Y-112932914D02*
X130292024Y-112837676D01*
X130292024Y-112837676D02*
X130387262Y-112742438D01*
X130387262Y-112742438D02*
X130530119Y-112694819D01*
X130530119Y-112694819D02*
X130625357Y-112694819D01*
X130625357Y-112694819D02*
X130768214Y-112742438D01*
X130768214Y-112742438D02*
X130815833Y-112790057D01*
X131672976Y-113028152D02*
X131672976Y-113694819D01*
X131434881Y-112647200D02*
X131196786Y-113361485D01*
X131196786Y-113361485D02*
X131815833Y-113361485D01*
X136333333Y-111859580D02*
X136285714Y-111907200D01*
X136285714Y-111907200D02*
X136142857Y-111954819D01*
X136142857Y-111954819D02*
X136047619Y-111954819D01*
X136047619Y-111954819D02*
X135904762Y-111907200D01*
X135904762Y-111907200D02*
X135809524Y-111811961D01*
X135809524Y-111811961D02*
X135761905Y-111716723D01*
X135761905Y-111716723D02*
X135714286Y-111526247D01*
X135714286Y-111526247D02*
X135714286Y-111383390D01*
X135714286Y-111383390D02*
X135761905Y-111192914D01*
X135761905Y-111192914D02*
X135809524Y-111097676D01*
X135809524Y-111097676D02*
X135904762Y-111002438D01*
X135904762Y-111002438D02*
X136047619Y-110954819D01*
X136047619Y-110954819D02*
X136142857Y-110954819D01*
X136142857Y-110954819D02*
X136285714Y-111002438D01*
X136285714Y-111002438D02*
X136333333Y-111050057D01*
X136904762Y-111383390D02*
X136809524Y-111335771D01*
X136809524Y-111335771D02*
X136761905Y-111288152D01*
X136761905Y-111288152D02*
X136714286Y-111192914D01*
X136714286Y-111192914D02*
X136714286Y-111145295D01*
X136714286Y-111145295D02*
X136761905Y-111050057D01*
X136761905Y-111050057D02*
X136809524Y-111002438D01*
X136809524Y-111002438D02*
X136904762Y-110954819D01*
X136904762Y-110954819D02*
X137095238Y-110954819D01*
X137095238Y-110954819D02*
X137190476Y-111002438D01*
X137190476Y-111002438D02*
X137238095Y-111050057D01*
X137238095Y-111050057D02*
X137285714Y-111145295D01*
X137285714Y-111145295D02*
X137285714Y-111192914D01*
X137285714Y-111192914D02*
X137238095Y-111288152D01*
X137238095Y-111288152D02*
X137190476Y-111335771D01*
X137190476Y-111335771D02*
X137095238Y-111383390D01*
X137095238Y-111383390D02*
X136904762Y-111383390D01*
X136904762Y-111383390D02*
X136809524Y-111431009D01*
X136809524Y-111431009D02*
X136761905Y-111478628D01*
X136761905Y-111478628D02*
X136714286Y-111573866D01*
X136714286Y-111573866D02*
X136714286Y-111764342D01*
X136714286Y-111764342D02*
X136761905Y-111859580D01*
X136761905Y-111859580D02*
X136809524Y-111907200D01*
X136809524Y-111907200D02*
X136904762Y-111954819D01*
X136904762Y-111954819D02*
X137095238Y-111954819D01*
X137095238Y-111954819D02*
X137190476Y-111907200D01*
X137190476Y-111907200D02*
X137238095Y-111859580D01*
X137238095Y-111859580D02*
X137285714Y-111764342D01*
X137285714Y-111764342D02*
X137285714Y-111573866D01*
X137285714Y-111573866D02*
X137238095Y-111478628D01*
X137238095Y-111478628D02*
X137190476Y-111431009D01*
X137190476Y-111431009D02*
X137095238Y-111383390D01*
X134833333Y-123454819D02*
X134357143Y-123454819D01*
X134357143Y-123454819D02*
X134357143Y-122454819D01*
X135690476Y-123454819D02*
X135119048Y-123454819D01*
X135404762Y-123454819D02*
X135404762Y-122454819D01*
X135404762Y-122454819D02*
X135309524Y-122597676D01*
X135309524Y-122597676D02*
X135214286Y-122692914D01*
X135214286Y-122692914D02*
X135119048Y-122740533D01*
X127454819Y-119311904D02*
X128264342Y-119311904D01*
X128264342Y-119311904D02*
X128359580Y-119264285D01*
X128359580Y-119264285D02*
X128407200Y-119216666D01*
X128407200Y-119216666D02*
X128454819Y-119121428D01*
X128454819Y-119121428D02*
X128454819Y-118930952D01*
X128454819Y-118930952D02*
X128407200Y-118835714D01*
X128407200Y-118835714D02*
X128359580Y-118788095D01*
X128359580Y-118788095D02*
X128264342Y-118740476D01*
X128264342Y-118740476D02*
X127454819Y-118740476D01*
X127454819Y-118359523D02*
X127454819Y-117740476D01*
X127454819Y-117740476D02*
X127835771Y-118073809D01*
X127835771Y-118073809D02*
X127835771Y-117930952D01*
X127835771Y-117930952D02*
X127883390Y-117835714D01*
X127883390Y-117835714D02*
X127931009Y-117788095D01*
X127931009Y-117788095D02*
X128026247Y-117740476D01*
X128026247Y-117740476D02*
X128264342Y-117740476D01*
X128264342Y-117740476D02*
X128359580Y-117788095D01*
X128359580Y-117788095D02*
X128407200Y-117835714D01*
X128407200Y-117835714D02*
X128454819Y-117930952D01*
X128454819Y-117930952D02*
X128454819Y-118216666D01*
X128454819Y-118216666D02*
X128407200Y-118311904D01*
X128407200Y-118311904D02*
X128359580Y-118359523D01*
X133083333Y-108359580D02*
X133035714Y-108407200D01*
X133035714Y-108407200D02*
X132892857Y-108454819D01*
X132892857Y-108454819D02*
X132797619Y-108454819D01*
X132797619Y-108454819D02*
X132654762Y-108407200D01*
X132654762Y-108407200D02*
X132559524Y-108311961D01*
X132559524Y-108311961D02*
X132511905Y-108216723D01*
X132511905Y-108216723D02*
X132464286Y-108026247D01*
X132464286Y-108026247D02*
X132464286Y-107883390D01*
X132464286Y-107883390D02*
X132511905Y-107692914D01*
X132511905Y-107692914D02*
X132559524Y-107597676D01*
X132559524Y-107597676D02*
X132654762Y-107502438D01*
X132654762Y-107502438D02*
X132797619Y-107454819D01*
X132797619Y-107454819D02*
X132892857Y-107454819D01*
X132892857Y-107454819D02*
X133035714Y-107502438D01*
X133035714Y-107502438D02*
X133083333Y-107550057D01*
X133940476Y-107454819D02*
X133750000Y-107454819D01*
X133750000Y-107454819D02*
X133654762Y-107502438D01*
X133654762Y-107502438D02*
X133607143Y-107550057D01*
X133607143Y-107550057D02*
X133511905Y-107692914D01*
X133511905Y-107692914D02*
X133464286Y-107883390D01*
X133464286Y-107883390D02*
X133464286Y-108264342D01*
X133464286Y-108264342D02*
X133511905Y-108359580D01*
X133511905Y-108359580D02*
X133559524Y-108407200D01*
X133559524Y-108407200D02*
X133654762Y-108454819D01*
X133654762Y-108454819D02*
X133845238Y-108454819D01*
X133845238Y-108454819D02*
X133940476Y-108407200D01*
X133940476Y-108407200D02*
X133988095Y-108359580D01*
X133988095Y-108359580D02*
X134035714Y-108264342D01*
X134035714Y-108264342D02*
X134035714Y-108026247D01*
X134035714Y-108026247D02*
X133988095Y-107931009D01*
X133988095Y-107931009D02*
X133940476Y-107883390D01*
X133940476Y-107883390D02*
X133845238Y-107835771D01*
X133845238Y-107835771D02*
X133654762Y-107835771D01*
X133654762Y-107835771D02*
X133559524Y-107883390D01*
X133559524Y-107883390D02*
X133511905Y-107931009D01*
X133511905Y-107931009D02*
X133464286Y-108026247D01*
X133016666Y-103704819D02*
X133016666Y-104419104D01*
X133016666Y-104419104D02*
X132969047Y-104561961D01*
X132969047Y-104561961D02*
X132873809Y-104657200D01*
X132873809Y-104657200D02*
X132730952Y-104704819D01*
X132730952Y-104704819D02*
X132635714Y-104704819D01*
X133969047Y-103704819D02*
X133492857Y-103704819D01*
X133492857Y-103704819D02*
X133445238Y-104181009D01*
X133445238Y-104181009D02*
X133492857Y-104133390D01*
X133492857Y-104133390D02*
X133588095Y-104085771D01*
X133588095Y-104085771D02*
X133826190Y-104085771D01*
X133826190Y-104085771D02*
X133921428Y-104133390D01*
X133921428Y-104133390D02*
X133969047Y-104181009D01*
X133969047Y-104181009D02*
X134016666Y-104276247D01*
X134016666Y-104276247D02*
X134016666Y-104514342D01*
X134016666Y-104514342D02*
X133969047Y-104609580D01*
X133969047Y-104609580D02*
X133921428Y-104657200D01*
X133921428Y-104657200D02*
X133826190Y-104704819D01*
X133826190Y-104704819D02*
X133588095Y-104704819D01*
X133588095Y-104704819D02*
X133492857Y-104657200D01*
X133492857Y-104657200D02*
X133445238Y-104609580D01*
X192833333Y-122204819D02*
X192500000Y-121728628D01*
X192261905Y-122204819D02*
X192261905Y-121204819D01*
X192261905Y-121204819D02*
X192642857Y-121204819D01*
X192642857Y-121204819D02*
X192738095Y-121252438D01*
X192738095Y-121252438D02*
X192785714Y-121300057D01*
X192785714Y-121300057D02*
X192833333Y-121395295D01*
X192833333Y-121395295D02*
X192833333Y-121538152D01*
X192833333Y-121538152D02*
X192785714Y-121633390D01*
X192785714Y-121633390D02*
X192738095Y-121681009D01*
X192738095Y-121681009D02*
X192642857Y-121728628D01*
X192642857Y-121728628D02*
X192261905Y-121728628D01*
X193738095Y-121204819D02*
X193261905Y-121204819D01*
X193261905Y-121204819D02*
X193214286Y-121681009D01*
X193214286Y-121681009D02*
X193261905Y-121633390D01*
X193261905Y-121633390D02*
X193357143Y-121585771D01*
X193357143Y-121585771D02*
X193595238Y-121585771D01*
X193595238Y-121585771D02*
X193690476Y-121633390D01*
X193690476Y-121633390D02*
X193738095Y-121681009D01*
X193738095Y-121681009D02*
X193785714Y-121776247D01*
X193785714Y-121776247D02*
X193785714Y-122014342D01*
X193785714Y-122014342D02*
X193738095Y-122109580D01*
X193738095Y-122109580D02*
X193690476Y-122157200D01*
X193690476Y-122157200D02*
X193595238Y-122204819D01*
X193595238Y-122204819D02*
X193357143Y-122204819D01*
X193357143Y-122204819D02*
X193261905Y-122157200D01*
X193261905Y-122157200D02*
X193214286Y-122109580D01*
X140583333Y-121109580D02*
X140535714Y-121157200D01*
X140535714Y-121157200D02*
X140392857Y-121204819D01*
X140392857Y-121204819D02*
X140297619Y-121204819D01*
X140297619Y-121204819D02*
X140154762Y-121157200D01*
X140154762Y-121157200D02*
X140059524Y-121061961D01*
X140059524Y-121061961D02*
X140011905Y-120966723D01*
X140011905Y-120966723D02*
X139964286Y-120776247D01*
X139964286Y-120776247D02*
X139964286Y-120633390D01*
X139964286Y-120633390D02*
X140011905Y-120442914D01*
X140011905Y-120442914D02*
X140059524Y-120347676D01*
X140059524Y-120347676D02*
X140154762Y-120252438D01*
X140154762Y-120252438D02*
X140297619Y-120204819D01*
X140297619Y-120204819D02*
X140392857Y-120204819D01*
X140392857Y-120204819D02*
X140535714Y-120252438D01*
X140535714Y-120252438D02*
X140583333Y-120300057D01*
X140964286Y-120300057D02*
X141011905Y-120252438D01*
X141011905Y-120252438D02*
X141107143Y-120204819D01*
X141107143Y-120204819D02*
X141345238Y-120204819D01*
X141345238Y-120204819D02*
X141440476Y-120252438D01*
X141440476Y-120252438D02*
X141488095Y-120300057D01*
X141488095Y-120300057D02*
X141535714Y-120395295D01*
X141535714Y-120395295D02*
X141535714Y-120490533D01*
X141535714Y-120490533D02*
X141488095Y-120633390D01*
X141488095Y-120633390D02*
X140916667Y-121204819D01*
X140916667Y-121204819D02*
X141535714Y-121204819D01*
X163369580Y-123466666D02*
X163417200Y-123514285D01*
X163417200Y-123514285D02*
X163464819Y-123657142D01*
X163464819Y-123657142D02*
X163464819Y-123752380D01*
X163464819Y-123752380D02*
X163417200Y-123895237D01*
X163417200Y-123895237D02*
X163321961Y-123990475D01*
X163321961Y-123990475D02*
X163226723Y-124038094D01*
X163226723Y-124038094D02*
X163036247Y-124085713D01*
X163036247Y-124085713D02*
X162893390Y-124085713D01*
X162893390Y-124085713D02*
X162702914Y-124038094D01*
X162702914Y-124038094D02*
X162607676Y-123990475D01*
X162607676Y-123990475D02*
X162512438Y-123895237D01*
X162512438Y-123895237D02*
X162464819Y-123752380D01*
X162464819Y-123752380D02*
X162464819Y-123657142D01*
X162464819Y-123657142D02*
X162512438Y-123514285D01*
X162512438Y-123514285D02*
X162560057Y-123466666D01*
X162464819Y-123133332D02*
X162464819Y-122514285D01*
X162464819Y-122514285D02*
X162845771Y-122847618D01*
X162845771Y-122847618D02*
X162845771Y-122704761D01*
X162845771Y-122704761D02*
X162893390Y-122609523D01*
X162893390Y-122609523D02*
X162941009Y-122561904D01*
X162941009Y-122561904D02*
X163036247Y-122514285D01*
X163036247Y-122514285D02*
X163274342Y-122514285D01*
X163274342Y-122514285D02*
X163369580Y-122561904D01*
X163369580Y-122561904D02*
X163417200Y-122609523D01*
X163417200Y-122609523D02*
X163464819Y-122704761D01*
X163464819Y-122704761D02*
X163464819Y-122990475D01*
X163464819Y-122990475D02*
X163417200Y-123085713D01*
X163417200Y-123085713D02*
X163369580Y-123133332D01*
X159083333Y-123754819D02*
X158750000Y-123278628D01*
X158511905Y-123754819D02*
X158511905Y-122754819D01*
X158511905Y-122754819D02*
X158892857Y-122754819D01*
X158892857Y-122754819D02*
X158988095Y-122802438D01*
X158988095Y-122802438D02*
X159035714Y-122850057D01*
X159035714Y-122850057D02*
X159083333Y-122945295D01*
X159083333Y-122945295D02*
X159083333Y-123088152D01*
X159083333Y-123088152D02*
X159035714Y-123183390D01*
X159035714Y-123183390D02*
X158988095Y-123231009D01*
X158988095Y-123231009D02*
X158892857Y-123278628D01*
X158892857Y-123278628D02*
X158511905Y-123278628D01*
X160035714Y-123754819D02*
X159464286Y-123754819D01*
X159750000Y-123754819D02*
X159750000Y-122754819D01*
X159750000Y-122754819D02*
X159654762Y-122897676D01*
X159654762Y-122897676D02*
X159559524Y-122992914D01*
X159559524Y-122992914D02*
X159464286Y-123040533D01*
X146715833Y-122619580D02*
X146668214Y-122667200D01*
X146668214Y-122667200D02*
X146525357Y-122714819D01*
X146525357Y-122714819D02*
X146430119Y-122714819D01*
X146430119Y-122714819D02*
X146287262Y-122667200D01*
X146287262Y-122667200D02*
X146192024Y-122571961D01*
X146192024Y-122571961D02*
X146144405Y-122476723D01*
X146144405Y-122476723D02*
X146096786Y-122286247D01*
X146096786Y-122286247D02*
X146096786Y-122143390D01*
X146096786Y-122143390D02*
X146144405Y-121952914D01*
X146144405Y-121952914D02*
X146192024Y-121857676D01*
X146192024Y-121857676D02*
X146287262Y-121762438D01*
X146287262Y-121762438D02*
X146430119Y-121714819D01*
X146430119Y-121714819D02*
X146525357Y-121714819D01*
X146525357Y-121714819D02*
X146668214Y-121762438D01*
X146668214Y-121762438D02*
X146715833Y-121810057D01*
X147668214Y-122714819D02*
X147096786Y-122714819D01*
X147382500Y-122714819D02*
X147382500Y-121714819D01*
X147382500Y-121714819D02*
X147287262Y-121857676D01*
X147287262Y-121857676D02*
X147192024Y-121952914D01*
X147192024Y-121952914D02*
X147096786Y-122000533D01*
X194683333Y-107134819D02*
X194350000Y-106658628D01*
X194111905Y-107134819D02*
X194111905Y-106134819D01*
X194111905Y-106134819D02*
X194492857Y-106134819D01*
X194492857Y-106134819D02*
X194588095Y-106182438D01*
X194588095Y-106182438D02*
X194635714Y-106230057D01*
X194635714Y-106230057D02*
X194683333Y-106325295D01*
X194683333Y-106325295D02*
X194683333Y-106468152D01*
X194683333Y-106468152D02*
X194635714Y-106563390D01*
X194635714Y-106563390D02*
X194588095Y-106611009D01*
X194588095Y-106611009D02*
X194492857Y-106658628D01*
X194492857Y-106658628D02*
X194111905Y-106658628D01*
X195016667Y-106134819D02*
X195635714Y-106134819D01*
X195635714Y-106134819D02*
X195302381Y-106515771D01*
X195302381Y-106515771D02*
X195445238Y-106515771D01*
X195445238Y-106515771D02*
X195540476Y-106563390D01*
X195540476Y-106563390D02*
X195588095Y-106611009D01*
X195588095Y-106611009D02*
X195635714Y-106706247D01*
X195635714Y-106706247D02*
X195635714Y-106944342D01*
X195635714Y-106944342D02*
X195588095Y-107039580D01*
X195588095Y-107039580D02*
X195540476Y-107087200D01*
X195540476Y-107087200D02*
X195445238Y-107134819D01*
X195445238Y-107134819D02*
X195159524Y-107134819D01*
X195159524Y-107134819D02*
X195064286Y-107087200D01*
X195064286Y-107087200D02*
X195016667Y-107039580D01*
X191294819Y-112386904D02*
X192104342Y-112386904D01*
X192104342Y-112386904D02*
X192199580Y-112339285D01*
X192199580Y-112339285D02*
X192247200Y-112291666D01*
X192247200Y-112291666D02*
X192294819Y-112196428D01*
X192294819Y-112196428D02*
X192294819Y-112005952D01*
X192294819Y-112005952D02*
X192247200Y-111910714D01*
X192247200Y-111910714D02*
X192199580Y-111863095D01*
X192199580Y-111863095D02*
X192104342Y-111815476D01*
X192104342Y-111815476D02*
X191294819Y-111815476D01*
X191390057Y-111386904D02*
X191342438Y-111339285D01*
X191342438Y-111339285D02*
X191294819Y-111244047D01*
X191294819Y-111244047D02*
X191294819Y-111005952D01*
X191294819Y-111005952D02*
X191342438Y-110910714D01*
X191342438Y-110910714D02*
X191390057Y-110863095D01*
X191390057Y-110863095D02*
X191485295Y-110815476D01*
X191485295Y-110815476D02*
X191580533Y-110815476D01*
X191580533Y-110815476D02*
X191723390Y-110863095D01*
X191723390Y-110863095D02*
X192294819Y-111434523D01*
X192294819Y-111434523D02*
X192294819Y-110815476D01*
X202604819Y-112033333D02*
X203319104Y-112033333D01*
X203319104Y-112033333D02*
X203461961Y-112080952D01*
X203461961Y-112080952D02*
X203557200Y-112176190D01*
X203557200Y-112176190D02*
X203604819Y-112319047D01*
X203604819Y-112319047D02*
X203604819Y-112414285D01*
X202700057Y-111604761D02*
X202652438Y-111557142D01*
X202652438Y-111557142D02*
X202604819Y-111461904D01*
X202604819Y-111461904D02*
X202604819Y-111223809D01*
X202604819Y-111223809D02*
X202652438Y-111128571D01*
X202652438Y-111128571D02*
X202700057Y-111080952D01*
X202700057Y-111080952D02*
X202795295Y-111033333D01*
X202795295Y-111033333D02*
X202890533Y-111033333D01*
X202890533Y-111033333D02*
X203033390Y-111080952D01*
X203033390Y-111080952D02*
X203604819Y-111652380D01*
X203604819Y-111652380D02*
X203604819Y-111033333D01*
X194633333Y-114984819D02*
X194300000Y-114508628D01*
X194061905Y-114984819D02*
X194061905Y-113984819D01*
X194061905Y-113984819D02*
X194442857Y-113984819D01*
X194442857Y-113984819D02*
X194538095Y-114032438D01*
X194538095Y-114032438D02*
X194585714Y-114080057D01*
X194585714Y-114080057D02*
X194633333Y-114175295D01*
X194633333Y-114175295D02*
X194633333Y-114318152D01*
X194633333Y-114318152D02*
X194585714Y-114413390D01*
X194585714Y-114413390D02*
X194538095Y-114461009D01*
X194538095Y-114461009D02*
X194442857Y-114508628D01*
X194442857Y-114508628D02*
X194061905Y-114508628D01*
X195490476Y-114318152D02*
X195490476Y-114984819D01*
X195252381Y-113937200D02*
X195014286Y-114651485D01*
X195014286Y-114651485D02*
X195633333Y-114651485D01*
X152566666Y-125224819D02*
X152566666Y-125939104D01*
X152566666Y-125939104D02*
X152519047Y-126081961D01*
X152519047Y-126081961D02*
X152423809Y-126177200D01*
X152423809Y-126177200D02*
X152280952Y-126224819D01*
X152280952Y-126224819D02*
X152185714Y-126224819D01*
X153566666Y-126224819D02*
X152995238Y-126224819D01*
X153280952Y-126224819D02*
X153280952Y-125224819D01*
X153280952Y-125224819D02*
X153185714Y-125367676D01*
X153185714Y-125367676D02*
X153090476Y-125462914D01*
X153090476Y-125462914D02*
X152995238Y-125510533D01*
X140029819Y-113946904D02*
X140839342Y-113946904D01*
X140839342Y-113946904D02*
X140934580Y-113899285D01*
X140934580Y-113899285D02*
X140982200Y-113851666D01*
X140982200Y-113851666D02*
X141029819Y-113756428D01*
X141029819Y-113756428D02*
X141029819Y-113565952D01*
X141029819Y-113565952D02*
X140982200Y-113470714D01*
X140982200Y-113470714D02*
X140934580Y-113423095D01*
X140934580Y-113423095D02*
X140839342Y-113375476D01*
X140839342Y-113375476D02*
X140029819Y-113375476D01*
X140363152Y-112470714D02*
X141029819Y-112470714D01*
X139982200Y-112708809D02*
X140696485Y-112946904D01*
X140696485Y-112946904D02*
X140696485Y-112327857D01*
X192833333Y-102704819D02*
X192500000Y-102228628D01*
X192261905Y-102704819D02*
X192261905Y-101704819D01*
X192261905Y-101704819D02*
X192642857Y-101704819D01*
X192642857Y-101704819D02*
X192738095Y-101752438D01*
X192738095Y-101752438D02*
X192785714Y-101800057D01*
X192785714Y-101800057D02*
X192833333Y-101895295D01*
X192833333Y-101895295D02*
X192833333Y-102038152D01*
X192833333Y-102038152D02*
X192785714Y-102133390D01*
X192785714Y-102133390D02*
X192738095Y-102181009D01*
X192738095Y-102181009D02*
X192642857Y-102228628D01*
X192642857Y-102228628D02*
X192261905Y-102228628D01*
X193214286Y-101800057D02*
X193261905Y-101752438D01*
X193261905Y-101752438D02*
X193357143Y-101704819D01*
X193357143Y-101704819D02*
X193595238Y-101704819D01*
X193595238Y-101704819D02*
X193690476Y-101752438D01*
X193690476Y-101752438D02*
X193738095Y-101800057D01*
X193738095Y-101800057D02*
X193785714Y-101895295D01*
X193785714Y-101895295D02*
X193785714Y-101990533D01*
X193785714Y-101990533D02*
X193738095Y-102133390D01*
X193738095Y-102133390D02*
X193166667Y-102704819D01*
X193166667Y-102704819D02*
X193785714Y-102704819D01*
X176488095Y-118954819D02*
X176488095Y-119764342D01*
X176488095Y-119764342D02*
X176535714Y-119859580D01*
X176535714Y-119859580D02*
X176583333Y-119907200D01*
X176583333Y-119907200D02*
X176678571Y-119954819D01*
X176678571Y-119954819D02*
X176869047Y-119954819D01*
X176869047Y-119954819D02*
X176964285Y-119907200D01*
X176964285Y-119907200D02*
X177011904Y-119859580D01*
X177011904Y-119859580D02*
X177059523Y-119764342D01*
X177059523Y-119764342D02*
X177059523Y-118954819D01*
X178059523Y-119954819D02*
X177488095Y-119954819D01*
X177773809Y-119954819D02*
X177773809Y-118954819D01*
X177773809Y-118954819D02*
X177678571Y-119097676D01*
X177678571Y-119097676D02*
X177583333Y-119192914D01*
X177583333Y-119192914D02*
X177488095Y-119240533D01*
D12*
%TO.C,C7*%
X130848335Y-122190000D02*
X130616665Y-122190000D01*
X130848335Y-122910000D02*
X130616665Y-122910000D01*
%TO.C,C9*%
X138770000Y-119400000D02*
G75*
G02*
X134530000Y-119400000I-2120000J0D01*
G01*
X134530000Y-119400000D02*
G75*
G02*
X138770000Y-119400000I2120000J0D01*
G01*
X137020000Y-121480000D02*
X136280000Y-121480000D01*
X137187000Y-121440000D02*
X136113000Y-121440000D01*
X137313000Y-121400000D02*
X135987000Y-121400000D01*
X137418000Y-121360000D02*
X135882000Y-121360000D01*
X137509000Y-121320000D02*
X135791000Y-121320000D01*
X137590000Y-121280000D02*
X135710000Y-121280000D01*
X137663000Y-121240000D02*
X135637000Y-121240000D01*
X135810000Y-121200000D02*
X135570000Y-121200000D01*
X137730000Y-121200000D02*
X137490000Y-121200000D01*
X135810000Y-121160000D02*
X135508000Y-121160000D01*
X137792000Y-121160000D02*
X137490000Y-121160000D01*
X135810000Y-121120000D02*
X135451000Y-121120000D01*
X137849000Y-121120000D02*
X137490000Y-121120000D01*
X135810000Y-121080000D02*
X135397000Y-121080000D01*
X137903000Y-121080000D02*
X137490000Y-121080000D01*
X135810000Y-121040000D02*
X135347000Y-121040000D01*
X137953000Y-121040000D02*
X137490000Y-121040000D01*
X135810000Y-121000000D02*
X135299000Y-121000000D01*
X138001000Y-121000000D02*
X137490000Y-121000000D01*
X135810000Y-120960000D02*
X135254000Y-120960000D01*
X138046000Y-120960000D02*
X137490000Y-120960000D01*
X135810000Y-120920000D02*
X135212000Y-120920000D01*
X138088000Y-120920000D02*
X137490000Y-120920000D01*
X135810000Y-120880000D02*
X135172000Y-120880000D01*
X138128000Y-120880000D02*
X137490000Y-120880000D01*
X135810000Y-120840000D02*
X135134000Y-120840000D01*
X138166000Y-120840000D02*
X137490000Y-120840000D01*
X135810000Y-120800000D02*
X135098000Y-120800000D01*
X138202000Y-120800000D02*
X137490000Y-120800000D01*
X135810000Y-120760000D02*
X135064000Y-120760000D01*
X138236000Y-120760000D02*
X137490000Y-120760000D01*
X135810000Y-120720000D02*
X135031000Y-120720000D01*
X138269000Y-120720000D02*
X137490000Y-120720000D01*
X135810000Y-120680000D02*
X135000000Y-120680000D01*
X138300000Y-120680000D02*
X137490000Y-120680000D01*
X135810000Y-120640000D02*
X134970000Y-120640000D01*
X138330000Y-120640000D02*
X137490000Y-120640000D01*
X135810000Y-120600000D02*
X134942000Y-120600000D01*
X138358000Y-120600000D02*
X137490000Y-120600000D01*
X135810000Y-120560000D02*
X134916000Y-120560000D01*
X138384000Y-120560000D02*
X137490000Y-120560000D01*
X135810000Y-120520000D02*
X134890000Y-120520000D01*
X138410000Y-120520000D02*
X137490000Y-120520000D01*
X135810000Y-120480000D02*
X134866000Y-120480000D01*
X138434000Y-120480000D02*
X137490000Y-120480000D01*
X135810000Y-120440000D02*
X134843000Y-120440000D01*
X138457000Y-120440000D02*
X137490000Y-120440000D01*
X135810000Y-120400000D02*
X134821000Y-120400000D01*
X138479000Y-120400000D02*
X137490000Y-120400000D01*
X135810000Y-120360000D02*
X134800000Y-120360000D01*
X138500000Y-120360000D02*
X137490000Y-120360000D01*
X135810000Y-120320000D02*
X134780000Y-120320000D01*
X138520000Y-120320000D02*
X137490000Y-120320000D01*
X135810000Y-120280000D02*
X134761000Y-120280000D01*
X138539000Y-120280000D02*
X137490000Y-120280000D01*
X135810000Y-120240000D02*
X134744000Y-120240000D01*
X138556000Y-120240000D02*
X137490000Y-120240000D01*
X135810000Y-120200000D02*
X134727000Y-120200000D01*
X138573000Y-120200000D02*
X137490000Y-120200000D01*
X135810000Y-120160000D02*
X134711000Y-120160000D01*
X138589000Y-120160000D02*
X137490000Y-120160000D01*
X135810000Y-120120000D02*
X134696000Y-120120000D01*
X138604000Y-120120000D02*
X137490000Y-120120000D01*
X135810000Y-120080000D02*
X134682000Y-120080000D01*
X138618000Y-120080000D02*
X137490000Y-120080000D01*
X135810000Y-120040000D02*
X134669000Y-120040000D01*
X138631000Y-120040000D02*
X137490000Y-120040000D01*
X135810000Y-120000000D02*
X134657000Y-120000000D01*
X138643000Y-120000000D02*
X137490000Y-120000000D01*
X135810000Y-119960000D02*
X134645000Y-119960000D01*
X138655000Y-119960000D02*
X137490000Y-119960000D01*
X135810000Y-119920000D02*
X134635000Y-119920000D01*
X138665000Y-119920000D02*
X137490000Y-119920000D01*
X135810000Y-119880000D02*
X134625000Y-119880000D01*
X138675000Y-119880000D02*
X137490000Y-119880000D01*
X135810000Y-119840000D02*
X134616000Y-119840000D01*
X138684000Y-119840000D02*
X137490000Y-119840000D01*
X135810000Y-119800000D02*
X134608000Y-119800000D01*
X138692000Y-119800000D02*
X137490000Y-119800000D01*
X135810000Y-119760000D02*
X134601000Y-119760000D01*
X138699000Y-119760000D02*
X137490000Y-119760000D01*
X135810000Y-119720000D02*
X134594000Y-119720000D01*
X138706000Y-119720000D02*
X137490000Y-119720000D01*
X135810000Y-119680000D02*
X134589000Y-119680000D01*
X138711000Y-119680000D02*
X137490000Y-119680000D01*
X135810000Y-119640000D02*
X134584000Y-119640000D01*
X138716000Y-119640000D02*
X137490000Y-119640000D01*
X135810000Y-119600000D02*
X134579000Y-119600000D01*
X138721000Y-119600000D02*
X137490000Y-119600000D01*
X138724000Y-119560000D02*
X134576000Y-119560000D01*
X138727000Y-119520000D02*
X134573000Y-119520000D01*
X138728000Y-119480000D02*
X134572000Y-119480000D01*
X138730000Y-119440000D02*
X134570000Y-119440000D01*
X138730000Y-119400000D02*
X134570000Y-119400000D01*
X138045000Y-117330199D02*
X137645000Y-117330199D01*
X137845000Y-117130199D02*
X137845000Y-117530199D01*
%TO.C,C4*%
X130866665Y-114760000D02*
X131098335Y-114760000D01*
X130866665Y-114040000D02*
X131098335Y-114040000D01*
%TO.C,C8*%
X138770000Y-114450000D02*
G75*
G02*
X134530000Y-114450000I-2120000J0D01*
G01*
X134530000Y-114450000D02*
G75*
G02*
X138770000Y-114450000I2120000J0D01*
G01*
X136280000Y-112370000D02*
X137020000Y-112370000D01*
X136113000Y-112410000D02*
X137187000Y-112410000D01*
X135987000Y-112450000D02*
X137313000Y-112450000D01*
X135882000Y-112490000D02*
X137418000Y-112490000D01*
X135791000Y-112530000D02*
X137509000Y-112530000D01*
X135710000Y-112570000D02*
X137590000Y-112570000D01*
X135637000Y-112610000D02*
X137663000Y-112610000D01*
X137490000Y-112650000D02*
X137730000Y-112650000D01*
X135570000Y-112650000D02*
X135810000Y-112650000D01*
X137490000Y-112690000D02*
X137792000Y-112690000D01*
X135508000Y-112690000D02*
X135810000Y-112690000D01*
X137490000Y-112730000D02*
X137849000Y-112730000D01*
X135451000Y-112730000D02*
X135810000Y-112730000D01*
X137490000Y-112770000D02*
X137903000Y-112770000D01*
X135397000Y-112770000D02*
X135810000Y-112770000D01*
X137490000Y-112810000D02*
X137953000Y-112810000D01*
X135347000Y-112810000D02*
X135810000Y-112810000D01*
X137490000Y-112850000D02*
X138001000Y-112850000D01*
X135299000Y-112850000D02*
X135810000Y-112850000D01*
X137490000Y-112890000D02*
X138046000Y-112890000D01*
X135254000Y-112890000D02*
X135810000Y-112890000D01*
X137490000Y-112930000D02*
X138088000Y-112930000D01*
X135212000Y-112930000D02*
X135810000Y-112930000D01*
X137490000Y-112970000D02*
X138128000Y-112970000D01*
X135172000Y-112970000D02*
X135810000Y-112970000D01*
X137490000Y-113010000D02*
X138166000Y-113010000D01*
X135134000Y-113010000D02*
X135810000Y-113010000D01*
X137490000Y-113050000D02*
X138202000Y-113050000D01*
X135098000Y-113050000D02*
X135810000Y-113050000D01*
X137490000Y-113090000D02*
X138236000Y-113090000D01*
X135064000Y-113090000D02*
X135810000Y-113090000D01*
X137490000Y-113130000D02*
X138269000Y-113130000D01*
X135031000Y-113130000D02*
X135810000Y-113130000D01*
X137490000Y-113170000D02*
X138300000Y-113170000D01*
X135000000Y-113170000D02*
X135810000Y-113170000D01*
X137490000Y-113210000D02*
X138330000Y-113210000D01*
X134970000Y-113210000D02*
X135810000Y-113210000D01*
X137490000Y-113250000D02*
X138358000Y-113250000D01*
X134942000Y-113250000D02*
X135810000Y-113250000D01*
X137490000Y-113290000D02*
X138384000Y-113290000D01*
X134916000Y-113290000D02*
X135810000Y-113290000D01*
X137490000Y-113330000D02*
X138410000Y-113330000D01*
X134890000Y-113330000D02*
X135810000Y-113330000D01*
X137490000Y-113370000D02*
X138434000Y-113370000D01*
X134866000Y-113370000D02*
X135810000Y-113370000D01*
X137490000Y-113410000D02*
X138457000Y-113410000D01*
X134843000Y-113410000D02*
X135810000Y-113410000D01*
X137490000Y-113450000D02*
X138479000Y-113450000D01*
X134821000Y-113450000D02*
X135810000Y-113450000D01*
X137490000Y-113490000D02*
X138500000Y-113490000D01*
X134800000Y-113490000D02*
X135810000Y-113490000D01*
X137490000Y-113530000D02*
X138520000Y-113530000D01*
X134780000Y-113530000D02*
X135810000Y-113530000D01*
X137490000Y-113570000D02*
X138539000Y-113570000D01*
X134761000Y-113570000D02*
X135810000Y-113570000D01*
X137490000Y-113610000D02*
X138556000Y-113610000D01*
X134744000Y-113610000D02*
X135810000Y-113610000D01*
X137490000Y-113650000D02*
X138573000Y-113650000D01*
X134727000Y-113650000D02*
X135810000Y-113650000D01*
X137490000Y-113690000D02*
X138589000Y-113690000D01*
X134711000Y-113690000D02*
X135810000Y-113690000D01*
X137490000Y-113730000D02*
X138604000Y-113730000D01*
X134696000Y-113730000D02*
X135810000Y-113730000D01*
X137490000Y-113770000D02*
X138618000Y-113770000D01*
X134682000Y-113770000D02*
X135810000Y-113770000D01*
X137490000Y-113810000D02*
X138631000Y-113810000D01*
X134669000Y-113810000D02*
X135810000Y-113810000D01*
X137490000Y-113850000D02*
X138643000Y-113850000D01*
X134657000Y-113850000D02*
X135810000Y-113850000D01*
X137490000Y-113890000D02*
X138655000Y-113890000D01*
X134645000Y-113890000D02*
X135810000Y-113890000D01*
X137490000Y-113930000D02*
X138665000Y-113930000D01*
X134635000Y-113930000D02*
X135810000Y-113930000D01*
X137490000Y-113970000D02*
X138675000Y-113970000D01*
X134625000Y-113970000D02*
X135810000Y-113970000D01*
X137490000Y-114010000D02*
X138684000Y-114010000D01*
X134616000Y-114010000D02*
X135810000Y-114010000D01*
X137490000Y-114050000D02*
X138692000Y-114050000D01*
X134608000Y-114050000D02*
X135810000Y-114050000D01*
X137490000Y-114090000D02*
X138699000Y-114090000D01*
X134601000Y-114090000D02*
X135810000Y-114090000D01*
X137490000Y-114130000D02*
X138706000Y-114130000D01*
X134594000Y-114130000D02*
X135810000Y-114130000D01*
X137490000Y-114170000D02*
X138711000Y-114170000D01*
X134589000Y-114170000D02*
X135810000Y-114170000D01*
X137490000Y-114210000D02*
X138716000Y-114210000D01*
X134584000Y-114210000D02*
X135810000Y-114210000D01*
X137490000Y-114250000D02*
X138721000Y-114250000D01*
X134579000Y-114250000D02*
X135810000Y-114250000D01*
X134576000Y-114290000D02*
X138724000Y-114290000D01*
X134573000Y-114330000D02*
X138727000Y-114330000D01*
X134572000Y-114370000D02*
X138728000Y-114370000D01*
X134570000Y-114410000D02*
X138730000Y-114410000D01*
X134570000Y-114450000D02*
X138730000Y-114450000D01*
X135255000Y-116519801D02*
X135655000Y-116519801D01*
X135455000Y-116719801D02*
X135455000Y-116319801D01*
%TO.C,L1*%
X133910000Y-121196267D02*
X133910000Y-120853733D01*
X132890000Y-121196267D02*
X132890000Y-120853733D01*
%TO.C,U3*%
X131990000Y-117570000D02*
X131660000Y-117330000D01*
X131990000Y-117090000D01*
X131990000Y-117570000D01*
G36*
X131990000Y-117570000D02*
G01*
X131660000Y-117330000D01*
X131990000Y-117090000D01*
X131990000Y-117570000D01*
G37*
X131710000Y-118630000D02*
X131710000Y-119430000D01*
X131710000Y-118630000D02*
X131710000Y-117830000D01*
X128640000Y-117670000D02*
X128640000Y-119430000D01*
%TO.C,C6*%
X132920000Y-110250000D02*
G75*
G02*
X128680000Y-110250000I-2120000J0D01*
G01*
X128680000Y-110250000D02*
G75*
G02*
X132920000Y-110250000I2120000J0D01*
G01*
X132880000Y-109880000D02*
X132880000Y-110620000D01*
X132840000Y-109713000D02*
X132840000Y-110787000D01*
X132800000Y-109587000D02*
X132800000Y-110913000D01*
X132760000Y-109482000D02*
X132760000Y-111018000D01*
X132720000Y-109391000D02*
X132720000Y-111109000D01*
X132680000Y-109310000D02*
X132680000Y-111190000D01*
X132640000Y-109237000D02*
X132640000Y-111263000D01*
X132600000Y-111090000D02*
X132600000Y-111330000D01*
X132600000Y-109170000D02*
X132600000Y-109410000D01*
X132560000Y-111090000D02*
X132560000Y-111392000D01*
X132560000Y-109108000D02*
X132560000Y-109410000D01*
X132520000Y-111090000D02*
X132520000Y-111449000D01*
X132520000Y-109051000D02*
X132520000Y-109410000D01*
X132480000Y-111090000D02*
X132480000Y-111503000D01*
X132480000Y-108997000D02*
X132480000Y-109410000D01*
X132440000Y-111090000D02*
X132440000Y-111553000D01*
X132440000Y-108947000D02*
X132440000Y-109410000D01*
X132400000Y-111090000D02*
X132400000Y-111601000D01*
X132400000Y-108899000D02*
X132400000Y-109410000D01*
X132360000Y-111090000D02*
X132360000Y-111646000D01*
X132360000Y-108854000D02*
X132360000Y-109410000D01*
X132320000Y-111090000D02*
X132320000Y-111688000D01*
X132320000Y-108812000D02*
X132320000Y-109410000D01*
X132280000Y-111090000D02*
X132280000Y-111728000D01*
X132280000Y-108772000D02*
X132280000Y-109410000D01*
X132240000Y-111090000D02*
X132240000Y-111766000D01*
X132240000Y-108734000D02*
X132240000Y-109410000D01*
X132200000Y-111090000D02*
X132200000Y-111802000D01*
X132200000Y-108698000D02*
X132200000Y-109410000D01*
X132160000Y-111090000D02*
X132160000Y-111836000D01*
X132160000Y-108664000D02*
X132160000Y-109410000D01*
X132120000Y-111090000D02*
X132120000Y-111869000D01*
X132120000Y-108631000D02*
X132120000Y-109410000D01*
X132080000Y-111090000D02*
X132080000Y-111900000D01*
X132080000Y-108600000D02*
X132080000Y-109410000D01*
X132040000Y-111090000D02*
X132040000Y-111930000D01*
X132040000Y-108570000D02*
X132040000Y-109410000D01*
X132000000Y-111090000D02*
X132000000Y-111958000D01*
X132000000Y-108542000D02*
X132000000Y-109410000D01*
X131960000Y-111090000D02*
X131960000Y-111984000D01*
X131960000Y-108516000D02*
X131960000Y-109410000D01*
X131920000Y-111090000D02*
X131920000Y-112010000D01*
X131920000Y-108490000D02*
X131920000Y-109410000D01*
X131880000Y-111090000D02*
X131880000Y-112034000D01*
X131880000Y-108466000D02*
X131880000Y-109410000D01*
X131840000Y-111090000D02*
X131840000Y-112057000D01*
X131840000Y-108443000D02*
X131840000Y-109410000D01*
X131800000Y-111090000D02*
X131800000Y-112079000D01*
X131800000Y-108421000D02*
X131800000Y-109410000D01*
X131760000Y-111090000D02*
X131760000Y-112100000D01*
X131760000Y-108400000D02*
X131760000Y-109410000D01*
X131720000Y-111090000D02*
X131720000Y-112120000D01*
X131720000Y-108380000D02*
X131720000Y-109410000D01*
X131680000Y-111090000D02*
X131680000Y-112139000D01*
X131680000Y-108361000D02*
X131680000Y-109410000D01*
X131640000Y-111090000D02*
X131640000Y-112156000D01*
X131640000Y-108344000D02*
X131640000Y-109410000D01*
X131600000Y-111090000D02*
X131600000Y-112173000D01*
X131600000Y-108327000D02*
X131600000Y-109410000D01*
X131560000Y-111090000D02*
X131560000Y-112189000D01*
X131560000Y-108311000D02*
X131560000Y-109410000D01*
X131520000Y-111090000D02*
X131520000Y-112204000D01*
X131520000Y-108296000D02*
X131520000Y-109410000D01*
X131480000Y-111090000D02*
X131480000Y-112218000D01*
X131480000Y-108282000D02*
X131480000Y-109410000D01*
X131440000Y-111090000D02*
X131440000Y-112231000D01*
X131440000Y-108269000D02*
X131440000Y-109410000D01*
X131400000Y-111090000D02*
X131400000Y-112243000D01*
X131400000Y-108257000D02*
X131400000Y-109410000D01*
X131360000Y-111090000D02*
X131360000Y-112255000D01*
X131360000Y-108245000D02*
X131360000Y-109410000D01*
X131320000Y-111090000D02*
X131320000Y-112265000D01*
X131320000Y-108235000D02*
X131320000Y-109410000D01*
X131280000Y-111090000D02*
X131280000Y-112275000D01*
X131280000Y-108225000D02*
X131280000Y-109410000D01*
X131240000Y-111090000D02*
X131240000Y-112284000D01*
X131240000Y-108216000D02*
X131240000Y-109410000D01*
X131200000Y-111090000D02*
X131200000Y-112292000D01*
X131200000Y-108208000D02*
X131200000Y-109410000D01*
X131160000Y-111090000D02*
X131160000Y-112299000D01*
X131160000Y-108201000D02*
X131160000Y-109410000D01*
X131120000Y-111090000D02*
X131120000Y-112306000D01*
X131120000Y-108194000D02*
X131120000Y-109410000D01*
X131080000Y-111090000D02*
X131080000Y-112311000D01*
X131080000Y-108189000D02*
X131080000Y-109410000D01*
X131040000Y-111090000D02*
X131040000Y-112316000D01*
X131040000Y-108184000D02*
X131040000Y-109410000D01*
X131000000Y-111090000D02*
X131000000Y-112321000D01*
X131000000Y-108179000D02*
X131000000Y-109410000D01*
X130960000Y-108176000D02*
X130960000Y-112324000D01*
X130920000Y-108173000D02*
X130920000Y-112327000D01*
X130880000Y-108172000D02*
X130880000Y-112328000D01*
X130840000Y-108170000D02*
X130840000Y-112330000D01*
X130800000Y-108170000D02*
X130800000Y-112330000D01*
X128730199Y-108855000D02*
X128730199Y-109255000D01*
X128530199Y-109055000D02*
X128930199Y-109055000D01*
%TO.C,R5*%
X194880000Y-121582379D02*
X194880000Y-121917621D01*
X194120000Y-121582379D02*
X194120000Y-121917621D01*
%TO.C,C2*%
X142205000Y-125219801D02*
X142205000Y-124819801D01*
X142005000Y-125019801D02*
X142405000Y-125019801D01*
X141320000Y-122950000D02*
X145480000Y-122950000D01*
X141320000Y-122910000D02*
X145480000Y-122910000D01*
X141322000Y-122870000D02*
X145478000Y-122870000D01*
X141323000Y-122830000D02*
X145477000Y-122830000D01*
X141326000Y-122790000D02*
X145474000Y-122790000D01*
X141329000Y-122750000D02*
X142560000Y-122750000D01*
X144240000Y-122750000D02*
X145471000Y-122750000D01*
X141334000Y-122710000D02*
X142560000Y-122710000D01*
X144240000Y-122710000D02*
X145466000Y-122710000D01*
X141339000Y-122670000D02*
X142560000Y-122670000D01*
X144240000Y-122670000D02*
X145461000Y-122670000D01*
X141344000Y-122630000D02*
X142560000Y-122630000D01*
X144240000Y-122630000D02*
X145456000Y-122630000D01*
X141351000Y-122590000D02*
X142560000Y-122590000D01*
X144240000Y-122590000D02*
X145449000Y-122590000D01*
X141358000Y-122550000D02*
X142560000Y-122550000D01*
X144240000Y-122550000D02*
X145442000Y-122550000D01*
X141366000Y-122510000D02*
X142560000Y-122510000D01*
X144240000Y-122510000D02*
X145434000Y-122510000D01*
X141375000Y-122470000D02*
X142560000Y-122470000D01*
X144240000Y-122470000D02*
X145425000Y-122470000D01*
X141385000Y-122430000D02*
X142560000Y-122430000D01*
X144240000Y-122430000D02*
X145415000Y-122430000D01*
X141395000Y-122390000D02*
X142560000Y-122390000D01*
X144240000Y-122390000D02*
X145405000Y-122390000D01*
X141407000Y-122350000D02*
X142560000Y-122350000D01*
X144240000Y-122350000D02*
X145393000Y-122350000D01*
X141419000Y-122310000D02*
X142560000Y-122310000D01*
X144240000Y-122310000D02*
X145381000Y-122310000D01*
X141432000Y-122270000D02*
X142560000Y-122270000D01*
X144240000Y-122270000D02*
X145368000Y-122270000D01*
X141446000Y-122230000D02*
X142560000Y-122230000D01*
X144240000Y-122230000D02*
X145354000Y-122230000D01*
X141461000Y-122190000D02*
X142560000Y-122190000D01*
X144240000Y-122190000D02*
X145339000Y-122190000D01*
X141477000Y-122150000D02*
X142560000Y-122150000D01*
X144240000Y-122150000D02*
X145323000Y-122150000D01*
X141494000Y-122110000D02*
X142560000Y-122110000D01*
X144240000Y-122110000D02*
X145306000Y-122110000D01*
X141511000Y-122070000D02*
X142560000Y-122070000D01*
X144240000Y-122070000D02*
X145289000Y-122070000D01*
X141530000Y-122030000D02*
X142560000Y-122030000D01*
X144240000Y-122030000D02*
X145270000Y-122030000D01*
X141550000Y-121990000D02*
X142560000Y-121990000D01*
X144240000Y-121990000D02*
X145250000Y-121990000D01*
X141571000Y-121950000D02*
X142560000Y-121950000D01*
X144240000Y-121950000D02*
X145229000Y-121950000D01*
X141593000Y-121910000D02*
X142560000Y-121910000D01*
X144240000Y-121910000D02*
X145207000Y-121910000D01*
X141616000Y-121870000D02*
X142560000Y-121870000D01*
X144240000Y-121870000D02*
X145184000Y-121870000D01*
X141640000Y-121830000D02*
X142560000Y-121830000D01*
X144240000Y-121830000D02*
X145160000Y-121830000D01*
X141666000Y-121790000D02*
X142560000Y-121790000D01*
X144240000Y-121790000D02*
X145134000Y-121790000D01*
X141692000Y-121750000D02*
X142560000Y-121750000D01*
X144240000Y-121750000D02*
X145108000Y-121750000D01*
X141720000Y-121710000D02*
X142560000Y-121710000D01*
X144240000Y-121710000D02*
X145080000Y-121710000D01*
X141750000Y-121670000D02*
X142560000Y-121670000D01*
X144240000Y-121670000D02*
X145050000Y-121670000D01*
X141781000Y-121630000D02*
X142560000Y-121630000D01*
X144240000Y-121630000D02*
X145019000Y-121630000D01*
X141814000Y-121590000D02*
X142560000Y-121590000D01*
X144240000Y-121590000D02*
X144986000Y-121590000D01*
X141848000Y-121550000D02*
X142560000Y-121550000D01*
X144240000Y-121550000D02*
X144952000Y-121550000D01*
X141884000Y-121510000D02*
X142560000Y-121510000D01*
X144240000Y-121510000D02*
X144916000Y-121510000D01*
X141922000Y-121470000D02*
X142560000Y-121470000D01*
X144240000Y-121470000D02*
X144878000Y-121470000D01*
X141962000Y-121430000D02*
X142560000Y-121430000D01*
X144240000Y-121430000D02*
X144838000Y-121430000D01*
X142004000Y-121390000D02*
X142560000Y-121390000D01*
X144240000Y-121390000D02*
X144796000Y-121390000D01*
X142049000Y-121350000D02*
X142560000Y-121350000D01*
X144240000Y-121350000D02*
X144751000Y-121350000D01*
X142097000Y-121310000D02*
X142560000Y-121310000D01*
X144240000Y-121310000D02*
X144703000Y-121310000D01*
X142147000Y-121270000D02*
X142560000Y-121270000D01*
X144240000Y-121270000D02*
X144653000Y-121270000D01*
X142201000Y-121230000D02*
X142560000Y-121230000D01*
X144240000Y-121230000D02*
X144599000Y-121230000D01*
X142258000Y-121190000D02*
X142560000Y-121190000D01*
X144240000Y-121190000D02*
X144542000Y-121190000D01*
X142320000Y-121150000D02*
X142560000Y-121150000D01*
X144240000Y-121150000D02*
X144480000Y-121150000D01*
X142387000Y-121110000D02*
X144413000Y-121110000D01*
X142460000Y-121070000D02*
X144340000Y-121070000D01*
X142541000Y-121030000D02*
X144259000Y-121030000D01*
X142632000Y-120990000D02*
X144168000Y-120990000D01*
X142737000Y-120950000D02*
X144063000Y-120950000D01*
X142863000Y-120910000D02*
X143937000Y-120910000D01*
X143030000Y-120870000D02*
X143770000Y-120870000D01*
X145520000Y-122950000D02*
G75*
G02*
X141280000Y-122950000I-2120000J0D01*
G01*
X141280000Y-122950000D02*
G75*
G02*
X145520000Y-122950000I2120000J0D01*
G01*
%TO.C,C3*%
X162210000Y-123184165D02*
X162210000Y-123415835D01*
X161490000Y-123184165D02*
X161490000Y-123415835D01*
%TO.C,R1*%
X159132379Y-121670000D02*
X159467621Y-121670000D01*
X159132379Y-122430000D02*
X159467621Y-122430000D01*
%TO.C,C1*%
X146998335Y-121460000D02*
X146766665Y-121460000D01*
X146998335Y-120740000D02*
X146766665Y-120740000D01*
%TO.C,R3*%
X194682379Y-107470000D02*
X195017621Y-107470000D01*
X194682379Y-108230000D02*
X195017621Y-108230000D01*
%TO.C,U2*%
X190995000Y-109565000D02*
X190995000Y-113685000D01*
X190930000Y-109565000D02*
X190995000Y-109565000D01*
X182125000Y-109565000D02*
X182190000Y-109565000D01*
X190995000Y-113685000D02*
X190930000Y-113685000D01*
X182190000Y-113685000D02*
X182125000Y-113685000D01*
X182125000Y-113685000D02*
X182125000Y-109565000D01*
X191260000Y-109265000D02*
X190930000Y-109025000D01*
X191260000Y-108785000D01*
X191260000Y-109265000D01*
G36*
X191260000Y-109265000D02*
G01*
X190930000Y-109025000D01*
X191260000Y-108785000D01*
X191260000Y-109265000D01*
G37*
%TO.C,R4*%
X194632379Y-115320000D02*
X194967621Y-115320000D01*
X194632379Y-116080000D02*
X194967621Y-116080000D01*
%TO.C,J1*%
X154280000Y-124770000D02*
X152900000Y-124770000D01*
X154280000Y-123390000D02*
X154280000Y-124770000D01*
X154280000Y-122120000D02*
X154280000Y-109310000D01*
X154280000Y-122120000D02*
X151520000Y-122120000D01*
X154280000Y-109310000D02*
X151520000Y-109310000D01*
X151520000Y-122120000D02*
X151520000Y-109310000D01*
%TO.C,U4*%
X141625000Y-116495000D02*
X141895000Y-116495000D01*
X148525000Y-116495000D02*
X148255000Y-116495000D01*
X141625000Y-110075000D02*
X141625000Y-116495000D01*
X148525000Y-110075000D02*
X148525000Y-116495000D01*
X141935000Y-118225000D02*
X141465000Y-118565000D01*
X141465000Y-117885000D01*
X141935000Y-118225000D01*
G36*
X141935000Y-118225000D02*
G01*
X141465000Y-118565000D01*
X141465000Y-117885000D01*
X141935000Y-118225000D01*
G37*
%TO.C,R2*%
X194270000Y-102367621D02*
X194270000Y-102032379D01*
X195030000Y-102367621D02*
X195030000Y-102032379D01*
%TO.C,U1*%
X175640000Y-120495606D02*
X175640000Y-118995606D01*
X175640000Y-102095606D02*
X175640000Y-103595606D01*
X175640000Y-102095606D02*
X174640000Y-102095606D01*
X174640000Y-120495606D02*
X175640000Y-120495606D01*
X156040000Y-120495606D02*
X156040000Y-102095606D01*
X156040000Y-102095606D02*
X156740000Y-102095606D01*
X156790000Y-120995606D02*
X156290000Y-120495606D01*
X156790000Y-120495606D01*
X156790000Y-120995606D01*
G36*
X156790000Y-120995606D02*
G01*
X156290000Y-120495606D01*
X156790000Y-120495606D01*
X156790000Y-120995606D01*
G37*
%TD*%
M02*
