M48
; DRILL file {KiCad 9.0.4-9.0.4-0~ubuntu24.04.1} date 2025-11-09T17:28:04-0500
; FORMAT={-:-/ absolute / metric / decimal}
; #@! TF.CreationDate,2025-11-09T17:28:04-05:00
; #@! TF.GenerationSoftware,Kicad,Pcbnew,9.0.4-9.0.4-0~ubuntu24.04.1
; #@! TF.FileFunction,Plated,1,2,PTH
FMAT,2
METRIC
; #@! TA.AperFunction,Plated,PTH,ViaDrill
T1C0.300
; #@! TA.AperFunction,Plated,PTH,ComponentDrill
T2C0.350
; #@! TA.AperFunction,Plated,PTH,ComponentDrill
T3C0.600
; #@! TA.AperFunction,Plated,PTH,ComponentDrill
T4C1.000
; #@! TA.AperFunction,Plated,PTH,ComponentDrill
T5C2.150
%
G90
G05
T1
X128.2Y-119.6
X128.2Y-120.2
X128.2Y-121.0
X129.2Y-118.8
X129.25Y-122.0
X144.0Y-106.0
X151.0Y-106.0
X155.5Y-102.5
X156.0Y-120.0
X160.8Y-123.8
X180.8Y-99.0
X181.0Y-105.0
X181.75Y-109.0
X183.0Y-118.0
X183.0Y-124.0
X185.25Y-115.75
X186.5Y-107.25
X188.125Y-116.125
X190.25Y-107.25
T2
X163.75Y-112.096
X163.75Y-113.496
X164.45Y-111.396
X164.45Y-112.796
X164.45Y-114.196
X165.15Y-112.096
X165.15Y-113.496
X165.85Y-111.396
X165.85Y-112.796
X165.85Y-114.196
X166.55Y-112.096
X166.55Y-113.496
T3
X129.8Y-110.25
X131.8Y-110.25
X136.65Y-113.45
X136.65Y-115.45
X136.65Y-118.4
X136.65Y-120.4
X143.4Y-121.95
X143.4Y-123.95
T4
X152.9Y-107.92
X152.9Y-110.46
X152.9Y-113.0
X152.9Y-115.54
X152.9Y-118.08
X152.9Y-120.62
T5
X129.45Y-104.0
X137.25Y-104.0
X200.0Y-100.0
X200.0Y-107.8
X200.0Y-115.6
X200.0Y-123.4
T3
G00X143.13Y-100.0
M15
G01X143.13Y-99.2
M16
G05
G00X143.13Y-104.33
M15
G01X143.13Y-103.23
M16
G05
G00X151.77Y-100.0
M15
G01X151.77Y-99.2
M16
G05
G00X151.77Y-104.33
M15
G01X151.77Y-103.23
M16
G05
M30
